<svg width="26" height="26" viewBox="0 0 26 26" fill="none" xmlns="http://www.w3.org/2000/svg">
<path d="M25.2493 0.792048C25.2392 0.742694 25.2151 0.697267 25.18 0.661092C25.1449 0.624918 25.1003 0.599495 25.0512 0.587804C21.7828 -0.211315 14.2308 2.63638 10.1392 6.72629C9.40942 7.45016 8.74413 8.23625 8.15087 9.07565C6.88914 8.96405 5.6274 9.05724 4.55205 9.526C1.51796 10.8614 0.634579 14.3458 0.388481 15.8447C0.374522 15.9268 0.379787 16.0109 0.403863 16.0906C0.427939 16.1703 0.470168 16.2432 0.527229 16.3038C0.584291 16.3644 0.654629 16.4109 0.732711 16.4397C0.810793 16.4685 0.894489 16.4788 0.977218 16.4697L5.8495 15.9323C5.85297 16.2997 5.87513 16.6666 5.91591 17.0317C5.94043 17.2852 6.05297 17.5222 6.23399 17.7013L8.12074 19.5836C8.30012 19.7644 8.53695 19.8769 8.79039 19.9017C9.15344 19.9423 9.51831 19.9644 9.8836 19.9681L9.349 24.8343C9.34008 24.917 9.35044 25.0006 9.37927 25.0786C9.4081 25.1567 9.45461 25.2269 9.51516 25.284C9.57571 25.341 9.64865 25.3832 9.72826 25.4074C9.80787 25.4315 9.89198 25.4368 9.974 25.423C11.4701 25.183 14.9607 24.2997 16.2883 21.2656C16.757 20.1902 16.853 18.9346 16.7448 17.679C17.5862 17.0857 18.3743 16.4202 19.1003 15.6902C23.2047 11.6064 26.0362 4.2229 25.2493 0.792048ZM15.0053 10.8184C14.6305 10.4439 14.3753 9.96661 14.2718 9.44696C14.1683 8.92731 14.2212 8.38864 14.4239 7.89909C14.6266 7.40953 14.9699 6.99109 15.4104 6.69668C15.851 6.40227 16.3689 6.24513 16.8988 6.24513C17.4286 6.24513 17.9466 6.40227 18.3871 6.69668C18.8276 6.99109 19.171 7.40953 19.3737 7.89909C19.5763 8.38864 19.6293 8.92731 19.5258 9.44696C19.4223 9.96661 19.167 10.4439 18.7922 10.8184C18.5437 11.0673 18.2485 11.2647 17.9236 11.3995C17.5988 11.5342 17.2505 11.6035 16.8988 11.6035C16.5471 11.6035 16.1988 11.5342 15.8739 11.3995C15.549 11.2647 15.2539 11.0673 15.0053 10.8184Z" fill="white"/>
</svg>
