<svg width="26" height="22" viewBox="0 0 26 22" fill="none" xmlns="http://www.w3.org/2000/svg">
<path d="M12.8809 0.109253L0.380859 5.94259L3.71419 7.44259V10.2759C2.71419 10.6093 2.04753 11.6093 2.04753 12.6093C2.04753 13.6093 2.71419 14.6093 3.71419 14.9426V15.1093L2.21419 18.6093C1.71419 20.1093 2.04753 21.7759 4.54753 21.7759C7.04753 21.7759 7.38086 20.1093 6.88086 18.6093L5.38086 15.1093C6.38086 14.6093 7.04753 13.7759 7.04753 12.6093C7.04753 11.4426 6.38086 10.6093 5.38086 10.2759V8.27592L12.8809 11.7759L25.3809 5.94259L12.8809 0.109253ZM20.2142 10.9426L12.7142 14.2759L8.71419 12.4426V12.6093C8.71419 13.7759 8.21419 14.7759 7.38086 15.6093L8.38086 17.9426V18.1093C8.54753 18.7759 8.71419 19.4426 8.54753 20.1093C9.71419 20.6093 11.0475 20.9426 12.7142 20.9426C18.2142 20.9426 20.2142 17.6093 20.2142 15.9426V10.9426Z" fill="white"/>
</svg>
