<svg width="28" height="22" viewBox="0 0 28 22" fill="none" xmlns="http://www.w3.org/2000/svg">
<path d="M23.3693 1.90447C21.5795 1.0829 19.6908 0.497043 17.7503 0.16158C17.7326 0.158317 17.7144 0.160696 17.6982 0.168378C17.682 0.176059 17.6686 0.188652 17.66 0.204369C17.4173 0.635846 17.1484 1.199 16.9603 1.64152C14.8384 1.32378 12.7275 1.32378 10.6492 1.64152C10.461 1.18906 10.1824 0.635846 9.93866 0.204369C9.92964 0.188975 9.91619 0.176658 9.90006 0.169025C9.88393 0.161392 9.86588 0.158797 9.84825 0.16158C7.90759 0.496364 6.01873 1.08224 4.22925 1.90447C4.21393 1.91097 4.20101 1.92206 4.19226 1.93621C0.613453 7.28289 -0.366826 12.4982 0.114065 17.6488C0.115404 17.6615 0.119271 17.6737 0.125437 17.6848C0.131603 17.6959 0.139941 17.7056 0.149953 17.7134C2.51107 19.4475 4.79834 20.5002 7.0431 21.198C7.06056 21.2032 7.0792 21.2029 7.09652 21.1973C7.11383 21.1916 7.129 21.1807 7.14 21.1662C7.67099 20.441 8.14429 19.6765 8.55023 18.8725C8.55582 18.8614 8.55902 18.8494 8.5596 18.837C8.56018 18.8247 8.55814 18.8124 8.55362 18.8009C8.54909 18.7894 8.54218 18.779 8.53334 18.7704C8.5245 18.7617 8.51394 18.7551 8.50234 18.7509C7.75146 18.466 7.03661 18.1188 6.34895 17.7245C6.33643 17.7171 6.32591 17.7068 6.31833 17.6943C6.31075 17.6819 6.30633 17.6679 6.30547 17.6534C6.30461 17.6388 6.30734 17.6243 6.3134 17.6111C6.31947 17.5979 6.32869 17.5864 6.34026 17.5776C6.48532 17.4692 6.6279 17.3574 6.76787 17.2425C6.78012 17.2323 6.79497 17.2258 6.81072 17.2237C6.82648 17.2215 6.84252 17.2238 6.85704 17.2303C11.375 19.293 16.266 19.293 20.7306 17.2303C20.7451 17.2234 20.7614 17.2208 20.7774 17.2228C20.7934 17.2247 20.8085 17.2312 20.821 17.2414C20.9611 17.357 21.104 17.4691 21.2497 17.5776C21.2613 17.5863 21.2706 17.5978 21.2768 17.6109C21.2829 17.6241 21.2857 17.6386 21.285 17.6531C21.2843 17.6676 21.2799 17.6817 21.2725 17.6941C21.265 17.7066 21.2546 17.717 21.2421 17.7245C20.5541 18.1262 19.8333 18.4692 19.0876 18.7498C19.076 18.7542 19.0655 18.761 19.0568 18.7698C19.048 18.7785 19.0412 18.7891 19.0368 18.8006C19.0323 18.8122 19.0304 18.8246 19.0311 18.837C19.0318 18.8494 19.0351 18.8614 19.0408 18.8725C19.4538 19.6701 19.9247 20.4364 20.4498 21.1651C20.4605 21.18 20.4756 21.1912 20.493 21.1971C20.5104 21.203 20.5292 21.2033 20.5467 21.198C22.8024 20.5002 25.0896 19.4475 27.4509 17.7134C27.461 17.706 27.4694 17.6965 27.4756 17.6855C27.4818 17.6746 27.4856 17.6625 27.4868 17.6499C28.0624 11.6952 26.5227 6.52263 23.4051 1.93732C23.3975 1.92242 23.3848 1.91076 23.3693 1.90447ZM9.22492 14.5127C7.86465 14.5127 6.74385 13.2639 6.74385 11.7303C6.74385 10.1967 7.84298 8.94793 9.22492 8.94793C10.6176 8.94793 11.7275 10.2077 11.7057 11.7303C11.7057 13.2639 10.6067 14.5127 9.22492 14.5127ZM18.3977 14.5127C17.0375 14.5127 15.9168 13.2639 15.9168 11.7303C15.9168 10.1967 17.0158 8.94793 18.3977 8.94793C19.7905 8.94793 20.9003 10.2077 20.8787 11.7303C20.8787 13.2639 19.7905 14.5127 18.3977 14.5127Z" fill="white"/>
</svg>
