<svg width="20" height="14" viewBox="0 0 20 14" fill="none" xmlns="http://www.w3.org/2000/svg">
<path d="M14.3079 0.105957C15.261 0.105957 15.9926 0.832428 16.5347 1.61405L16.7182 1.89068L16.8863 2.16645C16.9397 2.25607 16.9906 2.3457 17.0397 2.43187C17.7179 3.64438 18.3082 5.22745 18.6986 6.79156C19.0864 8.34361 19.301 9.9646 19.1639 11.2392C19.0261 12.5189 18.3668 13.8943 16.8932 13.8943C15.5712 13.8943 14.5293 13.1876 13.6831 12.4973L12.7265 11.695C11.9311 11.0435 11.0607 10.4472 9.99903 10.4472C8.93733 10.4472 8.06608 11.0435 7.27239 11.695L6.31582 12.4965C5.46784 13.1876 4.42596 13.8943 3.10487 13.8943C1.63039 13.8943 0.971132 12.5189 0.834111 11.2392C0.697951 9.96373 0.91167 8.34361 1.29947 6.79156C1.68985 5.22745 2.28016 3.64438 2.95837 2.43187L3.11177 2.16559L3.27981 1.89068L3.46337 1.61405C4.00542 0.832428 4.73706 0.105957 5.69018 0.105957C6.12968 0.105957 6.5666 0.212816 6.99576 0.338635L7.50679 0.495477C7.59124 0.52133 7.67483 0.546321 7.75843 0.569589C8.50386 0.783308 9.26652 0.967726 9.99903 0.967726C10.7315 0.967726 11.4942 0.783308 12.2396 0.569589L13.0023 0.339496C13.4315 0.212816 13.8684 0.105957 14.3079 0.105957ZM6.98283 3.55303C6.41145 3.55303 5.86346 3.78002 5.45943 4.18405C5.05539 4.58808 4.82841 5.13607 4.82841 5.70746C4.82841 6.27884 5.05539 6.82683 5.45943 7.23086C5.86346 7.6349 6.41145 7.86188 6.98283 7.86188C7.55422 7.86188 8.10221 7.6349 8.50624 7.23086C8.91027 6.82683 9.13726 6.27884 9.13726 5.70746C9.13726 5.13607 8.91027 4.58808 8.50624 4.18405C8.10221 3.78002 7.55422 3.55303 6.98283 3.55303ZM13.0152 3.55303C12.7867 3.55303 12.5675 3.64383 12.4059 3.80544C12.2442 3.96705 12.1534 4.18625 12.1534 4.4148V4.84569H11.7226C11.494 4.84569 11.2748 4.93648 11.1132 5.09809C10.9516 5.25971 10.8608 5.4789 10.8608 5.70746C10.8608 5.93601 10.9516 6.15521 11.1132 6.31682C11.2748 6.47843 11.494 6.56923 11.7226 6.56923H12.1534V7.00011C12.1534 7.22867 12.2442 7.44786 12.4059 7.60947C12.5675 7.77109 12.7867 7.86188 13.0152 7.86188C13.2438 7.86188 13.463 7.77109 13.6246 7.60947C13.7862 7.44786 13.877 7.22867 13.877 7.00011V6.56923H14.3079C14.5364 6.56923 14.7556 6.47843 14.9172 6.31682C15.0788 6.15521 15.1696 5.93601 15.1696 5.70746C15.1696 5.4789 15.0788 5.25971 14.9172 5.09809C14.7556 4.93648 14.5364 4.84569 14.3079 4.84569H13.877V4.4148C13.877 4.18625 13.7862 3.96705 13.6246 3.80544C13.463 3.64383 13.2438 3.55303 13.0152 3.55303ZM6.98283 5.27657C7.09711 5.27657 7.20671 5.32197 7.28752 5.40277C7.36832 5.48358 7.41372 5.59318 7.41372 5.70746C7.41372 5.82173 7.36832 5.93133 7.28752 6.01214C7.20671 6.09294 7.09711 6.13834 6.98283 6.13834C6.86856 6.13834 6.75896 6.09294 6.67815 6.01214C6.59735 5.93133 6.55195 5.82173 6.55195 5.70746C6.55195 5.59318 6.59735 5.48358 6.67815 5.40277C6.75896 5.32197 6.86856 5.27657 6.98283 5.27657Z" fill="white"/>
</svg>
