<svg width="91" height="40" viewBox="0 0 91 40" fill="none" xmlns="http://www.w3.org/2000/svg">
<path d="M75.7291 30.5556C76.0177 30.8167 76.2375 31.0228 76.4711 31.2289C77.6116 32.3007 78.8483 33.1252 80.346 33.345C81.8575 33.5649 83.3415 33.5511 84.6194 32.3832C85.2377 31.8335 85.6362 31.1053 85.7324 30.2259C85.7874 29.8136 85.7049 29.3327 85.5263 28.9892C85.1278 28.1373 84.4133 27.6151 83.6713 27.1892C82.3797 26.4472 81.0606 25.8013 79.7964 25.0181C79.0407 24.5509 78.2849 24.0013 77.6528 23.328C76.1551 21.7203 76.1276 19.247 77.4742 17.4744C78.4361 16.1828 79.7277 15.5645 81.143 15.3859C82.8331 15.1385 84.537 15.2622 86.2133 15.7156C86.7904 15.8805 86.8179 15.963 86.8179 16.6363C86.8179 17.5019 86.8179 18.3813 86.8042 19.247C86.8042 19.4256 86.7767 19.618 86.7492 19.8653C86.5981 19.7417 86.5294 19.6592 86.4469 19.563C85.4439 18.5462 84.2621 18.0378 82.943 17.9691C82.0911 17.9142 81.2392 17.9691 80.4147 18.2989C79.9338 18.505 79.5078 18.7936 79.2605 19.3432C78.8758 20.1264 78.9445 20.7722 79.4804 21.4318C80.1124 22.215 80.9094 22.6959 81.7476 23.1219C83.1766 23.8776 84.6469 24.6059 86.0484 25.4716C88.7554 27.1754 88.6317 30.3358 87.6836 32.1084C86.9279 33.5374 85.7874 34.458 84.4545 35.1176C82.5583 36.0382 80.6071 35.9145 78.6697 35.5435C78.0788 35.4336 77.4742 35.2687 76.8971 35.0764C76.7322 35.0214 76.5261 34.829 76.4986 34.6504C76.2238 33.3725 75.9902 32.0671 75.7291 30.7892C75.6879 30.7892 75.7017 30.7343 75.7291 30.5556Z" fill="url(#paint0_linear_1_5114)"/>
<path d="M15.2148 35.4061C15.5171 35.0214 15.792 34.6229 16.1217 34.2519C16.2179 34.1419 16.424 34.1419 16.5889 34.1419C23.1845 34.1419 29.78 34.1557 36.3756 34.1832C38.052 34.1832 39.7146 34.1969 41.391 34.3068C42.2292 34.3618 43.0673 34.6091 43.8643 34.8565C44.7437 35.1588 45.4308 35.7771 45.7331 36.9588C45.8292 36.7939 45.8979 36.7115 45.9254 36.629C46.2964 35.6397 46.9697 35.1038 47.8216 34.7878C49.0858 34.3206 50.3912 34.2519 51.6965 34.2519C59.254 34.2106 66.8251 34.1969 74.3963 34.1557C74.6024 34.1557 74.7948 34.1694 75.0146 34.1419C75.3306 34.087 75.523 34.1969 75.5505 34.6091C75.5505 34.7053 75.578 34.774 75.6055 34.8702C75.7566 35.6259 75.7566 35.6534 75.0558 35.7221C74.465 35.7771 73.8879 35.8183 73.2833 35.8183C65.7946 35.8321 58.3058 35.8321 50.8171 35.8321C49.5805 35.8321 48.385 36.1344 47.3407 36.9313C46.5987 37.5084 46.1041 38.2917 45.8979 39.281C45.8842 39.3497 45.8705 39.4047 45.8292 39.4871C45.8292 39.5008 45.8018 39.5283 45.7468 39.5558C45.7193 39.4459 45.6506 39.3497 45.6369 39.2398C45.3346 37.8245 44.4964 36.9588 43.3696 36.4092C42.504 35.9832 41.5696 35.8321 40.6352 35.8183C36.458 35.8046 32.2671 35.8321 28.0899 35.8321C24.4899 35.8183 20.8898 35.7771 17.3034 35.7221C16.6301 35.7084 15.9568 35.6122 15.2835 35.5435C15.2286 35.5023 15.2148 35.4473 15.2148 35.4061Z" fill="url(#paint1_linear_1_5114)"/>
<path d="M35.1269 25.4166C35.3055 25.4028 35.4017 25.3616 35.4979 25.3616C36.5147 25.3616 37.504 25.3616 38.5208 25.3616C38.7956 25.3616 38.8918 25.4578 38.8918 25.7876C38.8918 28.0136 38.8918 30.2258 38.8918 32.4381C38.8918 32.8091 38.7819 32.9877 38.4246 33.0839C36.7345 33.4686 35.0307 33.6335 33.3131 33.5236C31.4993 33.4137 29.7542 32.9053 28.284 31.5724C25.2885 28.9205 25.0824 23.5478 27.8717 20.4699C29.1909 18.9996 30.8123 18.2851 32.6123 18.0653C34.1788 17.8866 35.7315 17.9416 37.2704 18.2851C37.4491 18.3263 37.5865 18.3401 37.5865 18.6149C37.559 19.4806 37.5178 20.3462 37.4903 21.2806C37.3116 21.2256 37.1742 21.2119 37.0368 21.1569C35.5666 20.6073 34.0963 20.2638 32.5436 20.4562C28.8748 20.9233 27.7069 25.0043 29.1222 28.1098C30.2214 30.5006 32.0489 31.49 34.3299 31.4075C34.8933 31.3938 35.4566 31.2426 36.02 31.1877C36.2948 31.1465 36.3773 31.0091 36.3635 30.7068C36.3635 29.6075 36.3773 28.4945 36.3635 27.409C36.3635 27.2029 36.2673 26.9693 36.1574 26.7906C35.8414 26.3235 35.4979 25.8975 35.1269 25.4166Z" fill="url(#paint2_linear_1_5114)"/>
<path d="M49.7461 32.8092C50.0346 32.5344 50.3232 32.2321 50.653 31.971C50.9141 31.7511 51.024 31.4901 51.0102 31.1191C50.9965 27.4778 51.0102 23.8639 51.0102 20.2364C51.0102 19.8654 50.9141 19.5906 50.6667 19.3707C50.4606 19.1921 50.2682 18.9997 50.0621 18.7936C50.0896 18.7524 50.1308 18.7249 50.1446 18.6974C50.1583 18.6837 50.1721 18.6425 50.1995 18.6425C51.1339 18.6425 52.0683 18.6012 52.9752 18.6425C53.1675 18.6425 53.3737 18.8898 53.5248 19.0547C55.5172 21.3769 57.4959 23.6853 59.4883 26.0212C59.5845 26.1312 59.612 26.2961 59.6807 26.4335C59.7494 26.3922 59.8043 26.3373 59.873 26.3098C59.873 26.09 59.873 25.8701 59.873 25.6365C59.873 23.6029 59.873 21.5418 59.873 19.4944C59.873 18.4501 59.8181 18.6425 60.615 18.6287C61.3983 18.6287 62.1952 18.6287 62.9784 18.6287C62.9922 18.6699 63.0059 18.6974 63.0334 18.7524C62.8273 18.931 62.6349 19.1371 62.4288 19.302C62.0853 19.5631 61.9754 19.8929 61.9754 20.3738C61.9891 24.3586 61.9754 28.3434 61.9754 32.3557C61.9754 32.6031 61.9754 32.8367 61.9754 33.084C61.9204 33.0977 61.8929 33.139 61.8517 33.1527C59.0074 29.5938 56.163 26.035 53.25 22.3937C53.2362 22.6548 53.2225 22.8197 53.2225 22.9708C53.2225 26.1174 53.2225 29.2778 53.2225 32.4107C53.2225 32.8229 53.1401 32.9603 52.7553 32.9603C51.9171 32.9191 51.0652 32.9603 50.227 32.9466C50.1034 32.9466 49.9522 32.9328 49.8285 32.9328C49.7873 32.8916 49.7598 32.8504 49.7461 32.8092Z" fill="url(#paint3_linear_1_5114)"/>
<path d="M63.7207 32.7402C64.7238 31.6135 64.7375 30.2394 64.7375 28.8654C64.7513 26.6393 64.7513 24.4271 64.7513 22.2148C64.7513 20.1537 64.7513 20.1537 63.7894 18.5186C63.9131 18.5048 64.0093 18.4773 64.1329 18.4773C66.0154 18.4773 67.8842 18.5323 69.7666 18.4773C73.9713 18.3674 76.7744 23.108 75.208 27.8211C74.4797 29.9921 73.2293 31.6272 71.3056 32.4242C70.8522 32.6028 70.3575 32.7265 69.8766 32.7265C67.9529 32.7815 66.0291 32.7815 64.1054 32.7952C63.968 32.7952 63.8993 32.754 63.7207 32.7402ZM66.991 25.7325C66.991 26.5157 66.991 27.3126 66.991 28.0821C66.991 28.8791 67.0047 29.6761 66.991 30.473C66.991 30.8028 67.0597 30.9539 67.3757 30.9127C67.9666 30.844 68.5712 30.8578 69.1483 30.7616C70.2888 30.5829 71.3606 30.1845 72.1987 29.2226C73.243 27.9997 73.4354 26.4745 73.2705 24.8668C73.0644 22.5996 72.0064 21.2117 70.0689 20.772C69.217 20.5659 68.3101 20.6072 67.4444 20.511C67.0872 20.4697 66.9635 20.6209 66.9635 21.0469C67.0047 22.5996 66.991 24.1523 66.991 25.7325Z" fill="url(#paint4_linear_1_5114)"/>
<path d="M5.08984 36.1206C5.50207 35.5298 5.85933 34.9939 6.24407 34.513C6.62881 34.032 6.75247 33.5099 6.75247 32.8641C6.73873 28.0411 6.75247 23.2181 6.76622 18.3951C6.76622 17.6393 6.61507 17.0072 6.16162 16.4714C5.95551 16.224 5.79062 15.9492 5.55703 15.6057C5.77688 15.592 5.91429 15.5507 6.02421 15.5507C7.04103 15.5507 8.03037 15.5645 9.04718 15.537C9.40444 15.537 9.50062 15.6607 9.50062 16.0591C9.48688 21.5142 9.50062 26.983 9.50062 32.4381C9.50062 33.1114 9.50063 33.1114 10.064 33.1114C11.8366 33.1114 13.5816 33.1114 15.3542 33.1114C15.5053 33.1114 15.6427 33.1251 15.8626 33.1526C15.7389 33.3587 15.6702 33.4824 15.5878 33.5923C15.0107 34.3756 14.4473 35.145 13.8564 35.887C13.7465 36.0382 13.5129 36.1481 13.348 36.1619C10.7373 36.2031 8.12655 36.2031 5.50207 36.2031C5.39214 36.1756 5.29596 36.1481 5.08984 36.1206Z" fill="url(#paint5_linear_1_5114)"/>
<path d="M27.2795 32.7541C23.6657 32.7541 20.0381 32.7541 16.3281 32.7541C16.6991 32.3144 17.0014 31.9159 17.3312 31.5724C17.5511 31.325 17.6472 31.0502 17.6472 30.6792C17.6472 27.3539 17.6472 24.0287 17.661 20.7034C17.661 20.2912 17.5785 19.9477 17.3449 19.6316C17.0976 19.3156 16.8915 18.9446 16.6167 18.5324C16.7953 18.5186 16.919 18.4774 17.0289 18.4774C19.5984 18.4774 22.1954 18.4774 24.7649 18.4774C25.2596 18.4774 25.2596 18.4774 25.2596 19.0683C25.2596 19.7141 25.2596 20.3599 25.2596 21.0332C25.2596 21.1569 25.2459 21.308 25.2321 21.5691C25.0123 21.3492 24.8749 21.1569 24.6962 21.0332C24.4901 20.9095 24.2565 20.7309 24.0367 20.7309C22.8412 20.6897 21.6458 20.7309 20.4504 20.7172C20.1618 20.7172 20.0519 20.8133 20.0519 21.1569C20.0656 21.9126 20.0656 22.6958 20.0519 23.4516C20.0519 23.7813 20.1618 23.8775 20.4366 23.8638C21.2473 23.85 22.0443 23.8638 22.855 23.8638C23.1161 23.8638 23.226 23.96 23.2122 24.276C23.1985 24.7707 23.1985 25.2928 23.2122 25.8012C23.226 26.1585 23.1023 26.2409 22.8138 26.2409C22.0305 26.2272 21.2473 26.2547 20.4641 26.2272C20.1618 26.2272 20.0519 26.3234 20.0656 26.6944C20.0794 27.8623 20.0656 29.0166 20.0793 30.1845C20.0793 30.7616 20.0793 30.7616 20.574 30.7616C22.1405 30.7616 23.6932 30.7754 25.2596 30.7616C25.6306 30.7616 25.9054 30.8716 26.1665 31.2014C26.5512 31.696 26.9772 32.1907 27.3894 32.6716C27.3345 32.6854 27.307 32.7266 27.2795 32.7541Z" fill="url(#paint6_linear_1_5114)"/>
<path d="M53.1397 9.23011C53.3046 9.18888 53.4008 9.17514 53.4969 9.17514C54.3351 9.17514 55.187 9.17514 56.0252 9.17514C56.3 9.17514 56.3962 9.28507 56.3962 9.60111C56.3825 11.5523 56.3962 13.4897 56.3962 15.4409C56.3962 15.647 56.41 15.8531 56.1489 15.9081C53.9916 16.2929 51.8206 16.6089 49.6633 16.0043C47.8357 15.4684 46.3517 14.3691 45.541 12.3355C44.1532 8.84536 45.6372 4.76436 48.7839 3.37654C50.8037 2.48339 52.8649 2.53836 54.9535 2.95058C55.0496 2.96432 55.1733 3.15669 55.1733 3.25288C55.187 3.88495 55.187 4.48954 55.1733 5.12162C55.1596 5.60255 55.0909 5.64377 54.6924 5.47888C53.5244 5.01169 52.329 4.75062 51.0923 4.86055C47.5197 5.16284 46.5716 9.01025 47.8632 11.6897C48.9213 13.8607 50.6251 14.589 52.6725 14.4653C53.0847 14.4516 53.4969 14.3142 53.8954 14.2455C54.1015 14.2043 54.184 14.0806 54.184 13.8195C54.1702 12.8577 54.1977 11.9096 54.1702 10.9477C54.1702 10.7416 54.0191 10.5217 53.9092 10.3568C53.703 9.93088 53.4282 9.61485 53.1397 9.23011Z" fill="url(#paint7_linear_1_5114)"/>
<path d="M39.9211 18.5323C40.1135 18.5186 40.2371 18.4911 40.3608 18.4911C42.9303 18.4911 45.5273 18.4911 48.0968 18.4911C48.4816 18.4911 48.5915 18.6148 48.5778 19.0682C48.5503 19.8789 48.5778 20.7171 48.5778 21.5278C48.5503 21.5415 48.5091 21.569 48.4816 21.5828C48.3167 21.4041 48.1793 21.1705 48.0007 21.0331C47.822 20.882 47.6159 20.7308 47.4098 20.7308C46.1869 20.7171 44.9639 20.7308 43.741 20.7171C43.4662 20.7171 43.3563 20.8133 43.37 21.1431C43.3838 21.9263 43.3838 22.7232 43.37 23.4927C43.37 23.8088 43.4799 23.8775 43.7273 23.8775C44.538 23.8637 45.3349 23.8775 46.1457 23.8775C46.4205 23.8775 46.5304 23.9874 46.5167 24.3034C46.5029 24.7981 46.5029 25.3202 46.5167 25.8286C46.5304 26.1584 46.4067 26.2546 46.1319 26.2546C45.3487 26.2409 44.538 26.2546 43.7548 26.2409C43.4799 26.2409 43.3563 26.2958 43.3563 26.6668C43.37 27.8898 43.37 29.0989 43.3563 30.3219C43.3563 30.6791 43.4662 30.7616 43.7548 30.7616C45.3624 30.7478 46.9701 30.7616 48.5915 30.7616C48.7564 30.7616 48.9075 30.8028 49.1686 30.8165C48.9488 31.2425 48.7289 31.5585 48.5915 31.9158C48.3029 32.6028 47.8495 32.8227 47.1762 32.809C44.8403 32.754 42.5181 32.7952 40.1959 32.7952C40.0448 32.7952 39.9074 32.7952 39.7562 32.7952C39.7425 32.754 39.7287 32.7265 39.6875 32.6853C39.8799 32.4654 40.0585 32.2044 40.2646 31.9982C40.828 31.5036 40.9654 30.8715 40.9654 30.0745C40.9379 27.0104 40.9516 23.9599 40.9654 20.8957C40.9654 20.4011 40.8967 19.9751 40.5806 19.5766C40.3745 19.2743 40.1822 18.9171 39.9211 18.5323Z" fill="url(#paint8_linear_1_5114)"/>
<path d="M4.16834 14.7682C4.53934 15.3041 4.84164 15.7576 5.14394 16.1973C5.1302 16.2385 5.11646 16.2935 5.07523 16.3209C4.62179 16.3209 4.19583 16.3347 3.74238 16.3209C3.46757 16.3209 3.19275 16.2797 2.91794 16.2248C2.56068 16.156 2.45075 16.3209 2.50571 16.6919C2.69808 18.2172 2.86297 19.7286 3.08282 21.2539C3.46757 23.7822 4.41568 26.0631 5.72105 28.1105C6.00961 28.5777 6.13327 29.0311 6.10579 29.6082C6.07831 30.0342 6.10579 30.4602 6.03709 30.9274C4.11338 29.0311 2.65686 26.7776 1.73623 24.0707C0.582009 20.663 0.485823 17.1316 0.994231 13.4766C1.20034 13.5865 1.35149 13.6552 1.4889 13.7377C2.93168 14.5484 4.41568 14.8919 5.98212 14.2186C9.41731 12.7483 10.1181 7.87037 7.87835 5.452C7.80964 5.3833 7.76842 5.28711 7.6585 5.12222C7.83713 5.10848 7.96079 5.081 8.07072 5.081C10.8189 5.081 13.5533 5.081 16.3014 5.06726C16.6862 5.06726 16.7961 5.19093 16.7961 5.64437C16.7686 6.81234 16.906 6.64745 15.8892 6.64745C14.364 6.64745 12.8113 6.64745 11.2861 6.64745C10.8051 6.64745 10.7914 6.64745 10.8326 7.18334C10.9425 8.7223 10.9013 10.2613 10.4891 11.7453C10.2143 12.7896 9.73335 13.669 9.08753 14.4522C8.97761 14.5759 8.74401 14.6308 8.57913 14.6583C7.56231 14.672 6.53175 14.6583 5.52868 14.672C5.11646 14.6995 4.70423 14.727 4.16834 14.7682Z" fill="url(#paint9_linear_1_5114)"/>
<path d="M67.4854 3.15701C67.403 3.28067 67.3755 3.33563 67.3343 3.37686C66.6472 3.91275 66.5511 4.66849 66.5648 5.56164C66.5923 8.33727 66.5923 11.1404 66.5648 13.9298C66.5648 14.4656 66.661 14.8916 67.032 15.2214C67.2518 15.4275 67.4717 15.6473 67.6778 15.8535C67.6503 15.9084 67.6228 15.9634 67.5954 16.0184C67.4717 16.0321 67.3343 16.0596 67.2106 16.0596C66.4824 16.0596 65.7816 16.0458 65.0533 16.0733C64.6823 16.0871 64.4625 16.0046 64.5449 15.5237C64.5587 15.4687 64.5312 15.4 64.4899 15.2763C64.4075 15.3176 64.3388 15.3451 64.2838 15.3863C62.7586 16.5542 61.1097 16.6642 59.4746 15.826C58.4028 15.2763 57.757 14.2733 57.7158 12.858C57.6608 10.261 57.6196 7.66397 57.6196 5.06697C57.6196 4.4349 57.4959 3.94023 57.0562 3.56923C56.96 3.50053 56.8776 3.36312 56.7539 3.19823C56.9463 3.18449 57.0562 3.15701 57.1936 3.15701C57.8532 3.15701 58.499 3.17075 59.1585 3.14326C59.5021 3.12952 59.5982 3.25319 59.5708 3.63793C59.557 6.17997 59.5708 8.72201 59.557 11.2641C59.5433 13.545 60.9174 14.7267 62.9647 14.1771C64.2014 13.8473 64.6686 13.1603 64.6686 11.69C64.6686 8.99682 64.6686 6.31738 64.6686 3.63793C64.6686 3.25319 64.7648 3.14326 65.1083 3.14326C65.7541 3.15701 66.3999 3.14326 67.032 3.14326C67.1694 3.12952 67.2793 3.14327 67.4854 3.15701Z" fill="url(#paint10_linear_1_5114)"/>
<path d="M46.132 16.0462C45.2663 16.0462 44.4144 16.0599 43.5487 16.0325C43.4251 16.0325 43.2602 15.7714 43.1915 15.5928C42.7243 14.3561 42.2708 13.1057 41.8586 11.8415C41.7075 11.4018 41.4876 11.2232 41.0754 11.2507C40.141 11.2919 39.2066 11.2919 38.2723 11.2507C37.915 11.2369 37.7639 11.4018 37.6265 11.7454C37.1868 13.0232 36.7471 14.3011 36.3211 15.6065C36.2112 15.9363 36.0463 16.0737 35.744 16.0462C35.263 16.005 34.7684 16.0462 34.2188 16.0462C34.2737 15.8401 34.2875 15.6889 34.3287 15.5653C35.6341 11.9515 36.9119 8.33764 38.2311 4.72383C38.3547 4.35283 38.3272 4.10549 38.0662 3.8719C37.86 3.69327 37.6952 3.44594 37.4616 3.17112C37.6539 3.15738 37.7776 3.11616 37.915 3.11616C38.8219 3.11616 39.7013 3.1299 40.5945 3.10242C40.938 3.10242 41.1029 3.25357 41.2403 3.59708C42.4495 7.00479 43.6724 10.4262 44.8541 13.8339C45.0739 14.4798 45.3625 15.0569 45.8159 15.4966C45.9396 15.6202 46.0633 15.7714 46.1732 15.9225C46.1595 15.9775 46.1457 16.0187 46.132 16.0462ZM39.7838 6.07042C39.7563 6.07042 39.7151 6.07042 39.6738 6.07042C39.3028 7.12846 38.9181 8.1865 38.5196 9.2995C39.3303 9.2995 40.0448 9.2995 40.8418 9.2995C40.4708 8.1865 40.1135 7.12846 39.7838 6.07042Z" fill="url(#paint11_linear_1_5114)"/>
<path d="M25.2056 15.8401C25.4254 15.634 25.6865 15.4691 25.8651 15.208C26.03 14.9607 26.1812 14.6309 26.1812 14.3424C26.1949 11.3606 26.1674 8.36513 26.1812 5.38338C26.1812 4.69635 26.0712 4.16045 25.5903 3.74823C25.4254 3.62457 25.2743 3.47342 25.1094 3.33601C25.1369 3.28105 25.1643 3.22608 25.1918 3.17112C25.3155 3.15738 25.4529 3.11616 25.5628 3.11616C27.9262 3.11616 30.2896 3.11616 32.653 3.10242C32.9966 3.10242 33.0928 3.22608 33.0653 3.59708C33.0515 4.33909 33.0653 5.08109 33.0515 5.82309C33.0515 5.97423 33.0378 6.0979 33.0378 6.24905C33.0103 6.26279 32.9691 6.30401 32.9416 6.31775C32.7767 6.0979 32.5981 5.89179 32.4607 5.67194C32.1446 5.17727 31.7049 4.97116 31.1965 4.97116C30.2759 4.97116 29.369 4.9849 28.4484 4.9849C28.2285 4.9849 28.1323 5.08109 28.1461 5.34216C28.1461 6.08416 28.1598 6.82616 28.1461 7.56816C28.1461 7.87046 28.2423 7.98038 28.5033 7.98038C29.2041 7.96664 29.9186 7.98038 30.6057 7.98038C30.8805 7.98038 30.9904 8.07657 30.9904 8.40635C30.9767 8.83231 30.9767 9.24453 30.9904 9.6705C31.0042 9.94531 30.8942 10.0552 30.6469 10.0552C29.9599 10.0552 29.2591 10.069 28.572 10.0552C28.2835 10.0552 28.1736 10.1514 28.1873 10.4949C28.201 11.5392 28.201 12.5835 28.1873 13.6278C28.1736 14.0401 28.311 14.1088 28.6408 14.1088C30.166 14.095 31.6775 14.1088 33.2027 14.1088C33.3538 14.1088 33.4912 14.1088 33.7523 14.1088C33.5325 14.7958 33.3401 15.3866 33.1202 15.9638C33.0928 16.0325 32.9553 16.0874 32.8592 16.0874C30.3996 16.0874 27.9537 16.0874 25.4941 16.0874C25.4254 16.0874 25.3842 16.0462 25.3155 16.0325C25.2743 15.9638 25.233 15.9088 25.2056 15.8401Z" fill="url(#paint12_linear_1_5114)"/>
<path d="M77.3097 14.2185C76.8975 14.7957 76.4715 15.3728 76.0456 15.9224C75.9769 16.0186 75.8257 16.0461 75.702 16.0461C73.4486 16.0598 71.1951 16.0598 68.9416 16.0598C68.8591 16.0598 68.7767 16.0186 68.5981 15.9911C68.8179 15.73 68.9828 15.5102 69.1752 15.3178C69.4637 15.0155 69.5737 14.672 69.5737 14.246C69.5599 11.2093 69.5599 8.14514 69.5737 5.10843C69.5737 4.6275 69.4775 4.24276 69.134 3.92672C68.9278 3.72061 68.7355 3.50076 68.5156 3.29465C68.5294 3.25343 68.5431 3.22595 68.5706 3.17098C68.6668 3.15724 68.7767 3.12976 68.8729 3.12976C71.2225 3.12976 73.586 3.12976 75.9356 3.12976C76.4715 3.12976 76.4715 3.12976 76.444 3.72061C76.444 4.40765 76.444 5.09469 76.444 5.75425C76.444 5.90539 76.4303 6.02906 76.4303 6.29013C76.2379 6.1115 76.073 5.98784 75.9906 5.85043C75.5371 5.12217 74.9463 4.9298 74.1906 4.98476C73.4348 5.05347 72.6653 4.9985 71.8958 4.98476C71.6073 4.98476 71.4974 5.09469 71.5111 5.42447C71.5248 6.12525 71.5248 6.85351 71.5111 7.55428C71.5111 7.85658 71.6073 7.96651 71.8684 7.96651C72.5554 7.95277 73.2562 7.98025 73.9432 7.95277C74.2867 7.93902 74.3967 8.07643 74.3554 8.44743C74.3417 8.80469 74.3417 9.17569 74.3554 9.54669C74.3692 9.90395 74.2593 10.0414 73.957 10.0276C73.2974 10.0139 72.6241 10.0276 71.9646 10.0139C71.676 10.0139 71.5661 10.1101 71.5798 10.4536C71.5936 11.4979 71.5936 12.5422 71.5798 13.5865C71.5798 13.9575 71.6897 14.0537 71.992 14.0537C73.6134 14.0399 75.2349 14.0537 76.87 14.0537C76.9937 14.0537 77.1448 14.0674 77.2685 14.0674C77.2822 14.1224 77.296 14.1773 77.3097 14.2185Z" fill="url(#paint13_linear_1_5114)"/>
<path d="M83.8236 5.09435C81.8724 7.65013 81.68 10.2471 83.5625 12.693C85.5275 15.2763 87.9321 14.8778 90.3642 13.5449C91.6009 15.7709 90.213 25.1009 88.3443 27.0658C88.0008 26.6261 87.6573 26.2002 87.3687 25.7055C87.2863 25.5543 87.3137 25.2658 87.3825 25.0597C87.7672 23.6444 88.2481 22.284 88.5367 20.8275C88.8252 19.3435 88.9077 17.8183 89.1 16.2106C88.6329 16.2518 88.2481 16.2244 87.8634 16.3068C87.5061 16.3618 87.3137 16.2656 87.3825 15.8259C87.4374 15.4686 87.2176 15.3862 87.0114 15.2762C85.7473 14.6579 84.387 14.4793 83.0266 14.4243C82.477 14.4106 82.106 14.1632 81.8174 13.6411C81.2403 12.5831 80.8418 11.4838 80.8693 10.2059C80.8831 9.77995 80.7457 9.35399 80.7182 8.92802C80.6907 8.39214 80.7044 7.82876 80.7182 7.27913C80.7319 6.64706 80.7457 6.64706 80.2098 6.64706C79.3716 6.64706 78.5471 6.63332 77.7227 6.64706C77.4341 6.64706 77.3242 6.55087 77.3242 6.20736C77.338 4.84702 77.2006 5.09435 78.2586 5.08061C79.935 5.06687 81.5976 5.08061 83.274 5.08061C83.4114 5.09435 83.5625 5.09435 83.8236 5.09435Z" fill="url(#paint14_linear_1_5114)"/>
<path d="M16.4102 15.6202C16.6025 15.4553 16.8086 15.2629 17.001 15.098C17.317 14.7957 17.4682 14.411 17.4682 13.9713C17.4682 10.4262 17.4682 6.88108 17.4407 3.3497C17.4407 3.10237 17.317 2.82755 17.1659 2.62144C16.9873 2.36037 16.7262 2.14052 16.5063 1.92066C16.5201 1.87944 16.5338 1.82448 16.5613 1.797C16.685 1.78326 16.8224 1.75577 16.946 1.75577C17.7705 1.75577 18.5812 1.76951 19.4056 1.75577C19.7629 1.74203 19.8591 1.8657 19.8591 2.27792C19.8453 6.02915 19.8591 9.76663 19.8453 13.5179C19.8453 14.1087 19.8453 14.1087 20.3538 14.1087C21.8378 14.1087 23.2943 14.1087 24.7783 14.1087C24.9019 14.1087 25.0393 14.1087 25.1768 14.1087C25.1905 14.1499 25.2042 14.1774 25.2455 14.2324C25.0393 14.4935 24.792 14.7133 24.6134 14.9881C24.1325 15.7164 23.5416 15.9087 22.7446 15.895C20.7797 15.84 18.8148 15.8813 16.8636 15.8813C16.7537 15.8813 16.6437 15.8675 16.5476 15.8675C16.4926 15.7576 16.4514 15.6752 16.4102 15.6202Z" fill="url(#paint15_linear_1_5114)"/>
<path d="M39.084 2.12632C40.8428 0.752248 49.5544 0.491172 51.1896 1.75532C51.0247 1.79654 50.901 1.81029 50.7774 1.85151C50.1728 2.0164 49.5544 2.18129 48.9498 2.33243C48.4689 2.44236 47.9743 2.57977 47.4658 2.57977C45.6521 2.5248 43.852 2.46984 42.052 2.84084C41.8459 2.88206 41.6947 2.88206 41.6123 2.57977C41.5024 2.16754 41.1726 2.14006 40.8703 2.14006C40.3069 2.12632 39.7298 2.12632 39.084 2.12632Z" fill="url(#paint16_linear_1_5114)"/>
<path d="M22.9097 5.09464C23.5967 5.09464 24.2975 5.09464 24.9845 5.09464C25.2456 5.09464 25.3693 5.16334 25.3693 5.50686C25.383 6.67483 25.3968 6.67483 24.3937 6.67483C23.2257 6.67483 22.044 6.66108 20.8898 6.67483C20.6012 6.67483 20.4913 6.5649 20.505 6.23512C20.5325 4.87479 20.3539 5.13586 21.4394 5.12212C21.9203 5.06716 22.4013 5.09464 22.9097 5.09464Z" fill="url(#paint17_linear_1_5114)"/>
<path d="M37.5862 4.25621C37.3664 4.40736 37.1465 4.51728 36.9816 4.64095C36.1984 5.21806 35.3877 5.80891 34.6045 6.38602C34.5083 6.45473 34.4258 6.55091 34.3296 6.60588C33.9449 6.7845 33.78 6.66084 33.7938 6.19365C33.8212 4.54476 33.6014 4.98447 34.7968 4.21498C35.3327 3.85773 35.8686 3.54169 36.4045 3.17069C36.6793 2.99206 36.8579 3.04702 37.0366 3.33558C37.174 3.63787 37.3664 3.92643 37.5862 4.25621Z" fill="url(#paint18_linear_1_5114)"/>
<path d="M62.0318 6.64672C61.5508 6.64672 61.0837 6.64672 60.6027 6.64672C60.3829 6.64672 60.2867 6.55053 60.2867 6.28946C60.3004 4.79172 60.1355 5.10775 61.2485 5.06653C61.9493 5.05279 62.6776 5.06653 63.3921 5.06653C63.6532 5.06653 63.7494 5.16272 63.7494 5.47875C63.7769 6.64672 63.7769 6.64672 62.7463 6.64672C62.499 6.64672 62.2654 6.64672 62.0318 6.64672Z" fill="url(#paint19_linear_1_5114)"/>
<path d="M77.4892 9.31238C78.1488 9.31238 78.6022 9.90323 78.6022 10.7552C78.6022 11.6208 78.1213 12.143 77.3381 12.1705C76.6098 12.1842 76.1289 11.5796 76.1289 10.6727C76.1289 9.83453 76.6236 9.33986 77.4892 9.31238ZM77.9427 10.7277C77.9427 10.3017 77.6816 9.98568 77.3656 9.97193C77.0083 9.95819 76.7335 10.288 76.761 10.7277C76.761 11.1536 77.0221 11.4559 77.3518 11.4559C77.7091 11.4559 77.9427 11.1536 77.9427 10.7277Z" fill="url(#paint20_linear_1_5114)"/>
<path d="M75.8399 6.66078C75.5788 6.66078 75.3315 6.66078 75.0842 6.66078C74.3559 6.66078 73.6414 6.66078 72.8994 6.66078C72.6383 6.66078 72.4597 6.59208 72.4872 6.22108C72.5009 5.8913 72.6521 5.78137 72.9269 5.78137C73.6002 5.79511 74.2735 5.78137 74.9468 5.78137C75.3727 5.78137 75.6613 6.06993 75.8399 6.66078Z" fill="url(#paint21_linear_1_5114)"/>
<path d="M68.1175 6.64742C67.1556 6.63368 67.2655 6.85354 67.2655 5.65809C67.2655 5.08098 67.2655 5.08098 67.7602 5.08098C68.035 5.08098 68.3098 5.09472 68.5984 5.08098C68.8869 5.06724 68.9831 5.1909 68.9694 5.50694C68.9694 5.54816 68.9694 5.60313 68.9694 5.63061C68.9556 6.8398 69.093 6.63368 68.1175 6.64742Z" fill="url(#paint22_linear_1_5114)"/>
<path d="M78.8496 9.39558C79.3305 9.39558 79.784 9.35436 80.2237 9.40932C80.3474 9.42306 80.4298 9.76658 80.5947 10.0414C80.2512 10.0414 80.0451 10.0277 79.8389 10.0414C79.7565 10.0414 79.7015 10.1376 79.6191 10.1925C79.6878 10.2612 79.7428 10.3574 79.8252 10.3712C79.9351 10.4124 80.0863 10.3574 80.1962 10.3849C80.2924 10.4261 80.4023 10.5361 80.4161 10.646C80.4298 10.7009 80.2924 10.9071 80.2237 10.8933C79.6328 10.7971 79.5641 11.1956 79.6328 11.7315C79.6466 11.9514 79.5779 12.0888 79.358 12.0613C79.1931 12.0475 79.042 12.0613 78.8634 12.0613C79.1519 11.2094 79.1519 10.3574 78.8496 9.39558Z" fill="url(#paint23_linear_1_5114)"/>
<path d="M84.4825 29.993C84.7711 30.4327 84.7848 30.8862 84.4825 31.2572C83.7405 32.1503 82.7787 32.3702 81.7344 32.3152C82.2016 31.9442 82.6825 31.6144 83.1497 31.216C83.5894 30.845 84.0291 30.419 84.4825 29.993Z" fill="url(#paint24_linear_1_5114)"/>
<path d="M32.3355 6.66034C31.9782 6.66034 31.7034 6.66034 31.4286 6.66034C30.769 6.66034 30.0957 6.66034 29.4362 6.66034C29.2438 6.66034 29.0377 6.66034 29.0514 6.34431C29.0514 6.04201 29.2438 6.01453 29.4499 6.01453C30.1782 6.01453 30.8927 6.01453 31.621 6.01453C31.9645 6.01453 32.1431 6.23438 32.3355 6.66034Z" fill="url(#paint25_linear_1_5114)"/>
<path d="M56.8907 6.23486C55.8601 5.79516 55.4754 4.81956 55.9701 3.99512C56.7808 4.4623 57.0831 5.2043 56.8907 6.23486Z" fill="url(#paint26_linear_1_5114)"/>
<path d="M77.9434 10.728C77.9434 11.154 77.6961 11.4563 77.3526 11.4563C77.0091 11.4563 76.7617 11.154 76.7617 10.728C76.7617 10.2883 77.0228 9.97229 77.3663 9.97229C77.6823 9.98603 77.9434 10.3021 77.9434 10.728Z" fill="url(#paint27_linear_1_5114)"/>
<defs>
<linearGradient id="paint0_linear_1_5114" x1="82.0004" y1="15.2606" x2="82.0004" y2="35.8217" gradientUnits="userSpaceOnUse">
<stop stop-color="#FFC24B"/>
<stop offset="1" stop-color="#986500"/>
</linearGradient>
<linearGradient id="paint1_linear_1_5114" x1="45.4505" y1="34.1288" x2="45.4505" y2="39.5558" gradientUnits="userSpaceOnUse">
<stop stop-color="#FFC24B"/>
<stop offset="1" stop-color="#986500"/>
</linearGradient>
<linearGradient id="paint2_linear_1_5114" x1="32.3971" y1="17.9657" x2="32.3971" y2="33.557" gradientUnits="userSpaceOnUse">
<stop stop-color="#FFC24B"/>
<stop offset="1" stop-color="#986500"/>
</linearGradient>
<linearGradient id="paint3_linear_1_5114" x1="56.3897" y1="18.6229" x2="56.3897" y2="33.1527" gradientUnits="userSpaceOnUse">
<stop stop-color="#FFC24B"/>
<stop offset="1" stop-color="#986500"/>
</linearGradient>
<linearGradient id="paint4_linear_1_5114" x1="69.6844" y1="18.4755" x2="69.6844" y2="32.7952" gradientUnits="userSpaceOnUse">
<stop stop-color="#FFC24B"/>
<stop offset="1" stop-color="#986500"/>
</linearGradient>
<linearGradient id="paint5_linear_1_5114" x1="10.4762" y1="15.537" x2="10.4762" y2="36.2031" gradientUnits="userSpaceOnUse">
<stop stop-color="#FFC24B"/>
<stop offset="1" stop-color="#986500"/>
</linearGradient>
<linearGradient id="paint6_linear_1_5114" x1="21.8588" y1="18.4774" x2="21.8588" y2="32.7541" gradientUnits="userSpaceOnUse">
<stop stop-color="#FFC24B"/>
<stop offset="1" stop-color="#986500"/>
</linearGradient>
<linearGradient id="paint7_linear_1_5114" x1="50.7079" y1="2.66394" x2="50.7079" y2="16.3425" gradientUnits="userSpaceOnUse">
<stop stop-color="#FFC24B"/>
<stop offset="1" stop-color="#986500"/>
</linearGradient>
<linearGradient id="paint8_linear_1_5114" x1="44.4281" y1="18.4911" x2="44.4281" y2="32.8096" gradientUnits="userSpaceOnUse">
<stop stop-color="#FFC24B"/>
<stop offset="1" stop-color="#986500"/>
</linearGradient>
<linearGradient id="paint9_linear_1_5114" x1="8.74863" y1="5.06726" x2="8.74863" y2="30.9274" gradientUnits="userSpaceOnUse">
<stop stop-color="#FFC24B"/>
<stop offset="1" stop-color="#986500"/>
</linearGradient>
<linearGradient id="paint10_linear_1_5114" x1="62.2159" y1="3.13757" x2="62.2159" y2="16.3726" gradientUnits="userSpaceOnUse">
<stop stop-color="#FFC24B"/>
<stop offset="1" stop-color="#986500"/>
</linearGradient>
<linearGradient id="paint11_linear_1_5114" x1="40.196" y1="3.10242" x2="40.196" y2="16.0496" gradientUnits="userSpaceOnUse">
<stop stop-color="#FFC24B"/>
<stop offset="1" stop-color="#986500"/>
</linearGradient>
<linearGradient id="paint12_linear_1_5114" x1="29.4308" y1="3.10242" x2="29.4308" y2="16.0874" gradientUnits="userSpaceOnUse">
<stop stop-color="#FFC24B"/>
<stop offset="1" stop-color="#986500"/>
</linearGradient>
<linearGradient id="paint13_linear_1_5114" x1="72.9127" y1="3.12976" x2="72.9127" y2="16.0598" gradientUnits="userSpaceOnUse">
<stop stop-color="#FFC24B"/>
<stop offset="1" stop-color="#986500"/>
</linearGradient>
<linearGradient id="paint14_linear_1_5114" x1="84.0793" y1="5.07117" x2="84.0793" y2="27.0658" gradientUnits="userSpaceOnUse">
<stop stop-color="#FFC24B"/>
<stop offset="1" stop-color="#986500"/>
</linearGradient>
<linearGradient id="paint15_linear_1_5114" x1="20.8278" y1="1.75476" x2="20.8278" y2="15.8957" gradientUnits="userSpaceOnUse">
<stop stop-color="#FFC24B"/>
<stop offset="1" stop-color="#986500"/>
</linearGradient>
<linearGradient id="paint16_linear_1_5114" x1="45.1368" y1="0.937378" x2="45.1368" y2="2.86008" gradientUnits="userSpaceOnUse">
<stop stop-color="#FFC24B"/>
<stop offset="1" stop-color="#986500"/>
</linearGradient>
<linearGradient id="paint17_linear_1_5114" x1="22.9382" y1="5.08777" x2="22.9382" y2="6.67483" gradientUnits="userSpaceOnUse">
<stop stop-color="#FFC24B"/>
<stop offset="1" stop-color="#986500"/>
</linearGradient>
<linearGradient id="paint18_linear_1_5114" x1="35.6896" y1="3.06824" x2="35.6896" y2="6.68401" gradientUnits="userSpaceOnUse">
<stop stop-color="#FFC24B"/>
<stop offset="1" stop-color="#986500"/>
</linearGradient>
<linearGradient id="paint19_linear_1_5114" x1="62.0208" y1="5.06042" x2="62.0208" y2="6.64672" gradientUnits="userSpaceOnUse">
<stop stop-color="#FFC24B"/>
<stop offset="1" stop-color="#986500"/>
</linearGradient>
<linearGradient id="paint20_linear_1_5114" x1="77.3656" y1="9.31238" x2="77.3656" y2="12.1707" gradientUnits="userSpaceOnUse">
<stop stop-color="#FFC24B"/>
<stop offset="1" stop-color="#986500"/>
</linearGradient>
<linearGradient id="paint21_linear_1_5114" x1="74.1621" y1="5.78137" x2="74.1621" y2="6.66078" gradientUnits="userSpaceOnUse">
<stop stop-color="#FFC24B"/>
<stop offset="1" stop-color="#986500"/>
</linearGradient>
<linearGradient id="paint22_linear_1_5114" x1="68.1162" y1="5.07996" x2="68.1162" y2="6.65515" gradientUnits="userSpaceOnUse">
<stop stop-color="#FFC24B"/>
<stop offset="1" stop-color="#986500"/>
</linearGradient>
<linearGradient id="paint23_linear_1_5114" x1="79.7221" y1="9.38074" x2="79.7221" y2="12.0648" gradientUnits="userSpaceOnUse">
<stop stop-color="#FFC24B"/>
<stop offset="1" stop-color="#986500"/>
</linearGradient>
<linearGradient id="paint24_linear_1_5114" x1="83.2193" y1="29.993" x2="83.2193" y2="32.3231" gradientUnits="userSpaceOnUse">
<stop stop-color="#FFC24B"/>
<stop offset="1" stop-color="#986500"/>
</linearGradient>
<linearGradient id="paint25_linear_1_5114" x1="30.6931" y1="6.01453" x2="30.6931" y2="6.66034" gradientUnits="userSpaceOnUse">
<stop stop-color="#FFC24B"/>
<stop offset="1" stop-color="#986500"/>
</linearGradient>
<linearGradient id="paint26_linear_1_5114" x1="56.3513" y1="3.99512" x2="56.3513" y2="6.23486" gradientUnits="userSpaceOnUse">
<stop stop-color="#FFC24B"/>
<stop offset="1" stop-color="#986500"/>
</linearGradient>
<linearGradient id="paint27_linear_1_5114" x1="77.3526" y1="9.97229" x2="77.3526" y2="11.4563" gradientUnits="userSpaceOnUse">
<stop stop-color="#FFC24B"/>
<stop offset="1" stop-color="#986500"/>
</linearGradient>
</defs>
</svg>
