<svg width="15" height="19" viewBox="0 0 15 19" fill="none" xmlns="http://www.w3.org/2000/svg">
<path d="M7.50513 0.574219C8.70903 0.574219 9.86363 1.05247 10.7149 1.90376C11.5662 2.75505 12.0445 3.90965 12.0445 5.11356V7.83716C12.7668 7.83716 13.4596 8.12411 13.9703 8.63488C14.4811 9.14566 14.7681 9.83842 14.7681 10.5608V16.008C14.7681 16.7303 14.4811 17.4231 13.9703 17.9338C13.4596 18.4446 12.7668 18.7316 12.0445 18.7316H2.96579C2.24345 18.7316 1.55069 18.4446 1.03991 17.9338C0.529138 17.4231 0.242188 16.7303 0.242188 16.008V10.5608C0.242187 9.83842 0.529138 9.14566 1.03991 8.63488C1.55069 8.12411 2.24345 7.83716 2.96579 7.83716V5.11356C2.96579 3.90965 3.44404 2.75505 4.29533 1.90376C5.14662 1.05247 6.30122 0.574219 7.50513 0.574219ZM7.50513 11.4686C7.04704 11.4685 6.60582 11.6415 6.26993 11.953C5.93404 12.2645 5.72829 12.6914 5.69393 13.1482L5.68939 13.2844C5.68939 13.6435 5.79588 13.9945 5.9954 14.2931C6.19491 14.5917 6.47849 14.8245 6.81028 14.9619C7.14206 15.0993 7.50714 15.1353 7.85936 15.0652C8.21158 14.9951 8.53511 14.8222 8.78905 14.5683C9.04298 14.3143 9.21591 13.9908 9.28597 13.6386C9.35603 13.2864 9.32008 12.9213 9.18265 12.5895C9.04522 12.2577 8.81249 11.9741 8.5139 11.7746C8.2153 11.5751 7.86425 11.4686 7.50513 11.4686ZM7.50513 2.38995C6.78278 2.38995 6.09002 2.6769 5.57925 3.18768C5.06847 3.69845 4.78152 4.39121 4.78152 5.11356V7.83716H10.2287V5.11356C10.2287 4.39121 9.94178 3.69845 9.431 3.18768C8.92023 2.6769 8.22747 2.38995 7.50513 2.38995Z" fill="white"/>
</svg>
