<svg width="79" height="44" viewBox="0 0 79 44" fill="none" xmlns="http://www.w3.org/2000/svg">
<path d="M33.9182 6.80225C35.816 5.35884 38.1415 4.5703 40.5338 4.5703C42.9262 4.5703 45.2517 5.35884 47.1495 6.80225L49.8358 3.47438C47.1762 1.40281 43.8884 0.280151 40.5205 0.280151C37.1391 0.280151 33.8647 1.40281 31.2051 3.47438L33.9182 6.80225Z" fill="#EF8313"/>
<path d="M50.6787 4.16882L48.0057 7.53679C49.7565 9.16732 50.8925 11.3458 51.2534 13.7114C51.6009 16.077 51.1331 18.4961 49.9302 20.5543L43.9962 14.8474L41.2296 8.61936V18.0951L47.0568 23.7351C45.1723 25.1384 42.8869 25.9003 40.5347 25.9003C38.1824 25.9003 35.897 25.1384 34.0126 23.7351L39.8798 18.0951V8.61936L37.1132 14.8474L31.1792 20.5142C29.9763 18.456 29.5086 16.0503 29.8427 13.698C30.1768 11.3458 31.3128 9.16732 33.0503 7.53679L30.3773 4.16882C28.827 5.55878 27.5974 7.25613 26.742 9.16732C25.8867 11.0785 25.459 13.1233 25.459 15.2083C25.5659 19.1242 27.2098 22.853 30.0164 25.5795C32.8231 28.3059 36.592 29.8429 40.5213 29.8429C44.4372 29.8429 48.2062 28.3193 51.0262 25.5795C53.8328 22.853 55.4767 19.1242 55.5836 15.2083C55.5836 13.1233 55.1426 11.0651 54.3006 9.16732C53.472 7.25613 52.229 5.55878 50.6787 4.16882Z" fill="#EF8313"/>
<path d="M14.0734 32.1151L15.8108 34.5876H12.3359L14.0734 32.1151Z" fill="#EF8313"/>
<path d="M44.0906 34.6552L42.7006 37.9296L41.2706 34.6552H39.7603L38.3303 37.8895L36.9671 34.6552H34.6816L37.515 41.0971H38.9584L40.4018 37.8627L41.8319 41.0971H43.3689L46.1889 34.6552H44.0906Z" fill="#EF8313"/>
<path d="M76.0326 34.6552V36.9272H72.0766V34.6552H69.8848V41.0971H72.0766V38.5978H76.0326V41.0971H78.2111V34.6552H76.0326Z" fill="#EF8313"/>
<path d="M48.8068 34.6552L44.4766 41.0971H46.8689L49.5552 36.9406L52.2149 41.0971H54.6874L50.4774 34.6552H48.8068Z" fill="#EF8313"/>
<path d="M18.8574 34.6552H16.4249L13.9792 38.5844L11.5601 34.6552H9.07422L13.1372 41.0971H14.634L18.8574 34.6552Z" fill="#EF8313"/>
<path d="M52.9766 34.6552V36.3525H55.7832V41.0971H57.9884V36.3525H60.1936L61.3163 34.6552H52.9766Z" fill="#EF8313"/>
<path d="M8.12522 34.7747C7.88465 34.7079 7.61735 34.6678 7.36342 34.6811H2.55203C1.44274 34.6811 0.747764 35.2425 0.747764 36.1379V39.6529C0.734399 39.9069 0.801224 40.1742 0.948239 40.388C1.08189 40.6152 1.28236 40.7889 1.50957 40.8959H1.60312L2.95298 39.5326V36.3518H7.04266V39.399H4.02218L2.32483 41.0963H7.41688C8.48608 41.0963 9.23451 40.4949 9.23451 39.6396V36.2983L8.21878 34.7747H8.12522Z" fill="#EF8313"/>
<path d="M67.146 34.6552H62.7623H62.4148H62.348L62.1609 34.9358L60.918 36.7668V39.6002C60.918 40.4555 61.6664 41.057 62.7222 41.057H67.1193C67.3332 41.0837 67.547 41.0703 67.7608 41.0035C67.9747 40.95 68.1618 40.8431 68.3355 40.7095C68.5093 40.5758 68.6429 40.4021 68.7498 40.215C68.8568 40.0279 68.9236 39.814 68.9369 39.6002V38.4909H66.705V39.3596H63.1366V36.3391H66.705V37.0876H68.9236V36.1119C68.9637 35.2432 68.2553 34.6552 67.146 34.6552Z" fill="#EF8313"/>
<path d="M18.7363 36.2723V41.1104H25.5525V39.4131H20.9282V38.5978H24.0556V37.1143H20.9282V36.3525H25.5525V34.6552H19.859L18.7363 36.2723Z" fill="#EF8313"/>
<path d="M32.6619 38.7047C33.4504 38.7047 34.2924 38.2904 34.2924 37.5286V35.9783C34.2924 35.163 33.6509 34.6552 32.6351 34.6552H26.5273V41.0837H28.7192V36.3124H32.1674C32.1674 36.3124 32.1674 36.3124 32.1674 36.3792V37.3549C32.1273 37.3682 32.0872 37.3682 32.0471 37.3549H29.7216V38.5978L32.4213 41.0169H35.4284L32.6619 38.7047Z" fill="#EF8313"/>
<path d="M49.5831 43.5557L47.8457 41.0966H51.3072L49.5831 43.5557Z" fill="#EF8313"/>
</svg>
