<svg width="15" height="11" viewBox="0 0 15 11" fill="none" xmlns="http://www.w3.org/2000/svg">
<path d="M9.56121 3.37891H9.01121C8.74599 3.37891 8.49164 3.48427 8.3041 3.67181C8.11657 3.85934 8.01121 4.1137 8.01121 4.37891V6.37891C8.01121 6.90935 7.8005 7.41805 7.42542 7.79313C7.05035 8.1682 6.54164 8.37891 6.01121 8.37891H5.46121C5.3373 8.98593 4.99241 9.52532 4.49341 9.89251C3.99441 10.2597 3.37685 10.4285 2.76045 10.3663C2.14405 10.304 1.57272 10.0151 1.15724 9.55549C0.741759 9.09592 0.511719 8.49845 0.511719 7.87891C0.511719 7.25937 0.741759 6.6619 1.15724 6.20234C1.57272 5.74277 2.14405 5.45384 2.76045 5.39157C3.37685 5.3293 3.99441 5.49813 4.49341 5.86531C4.99241 6.2325 5.3373 6.77189 5.46121 7.37891H6.01121C6.27642 7.37891 6.53078 7.27355 6.71832 7.08602C6.90585 6.89848 7.01121 6.64413 7.01121 6.37891V4.37891C7.01121 3.84848 7.22192 3.33977 7.597 2.9647C7.97207 2.58963 8.48078 2.37891 9.01121 2.37891H9.56121C9.68512 1.77189 10.03 1.2325 10.529 0.865313C11.028 0.498126 11.6456 0.329302 12.262 0.391572C12.8784 0.453841 13.4497 0.742767 13.8652 1.20234C14.2807 1.6619 14.5107 2.25937 14.5107 2.87891C14.5107 3.49845 14.2807 4.09592 13.8652 4.55549C13.4497 5.01506 12.8784 5.30398 12.262 5.36625C11.6456 5.42852 11.028 5.2597 10.529 4.89251C10.03 4.52532 9.68512 3.98593 9.56121 3.37891Z" fill="white"/>
</svg>
