<svg width="15" height="16" viewBox="0 0 15 16" fill="none" xmlns="http://www.w3.org/2000/svg">
<path d="M1.28118 0.393066L2.03078 1.92319V13.7072L1.28118 15.2367H10.3914L11.2184 12.3409H5.25061V0.393066H1.28118ZM7.52044 1.33069C6.95577 1.33069 6.40841 1.39996 5.8827 1.52365V2.59981C6.41549 2.44872 6.96664 2.37213 7.52044 2.37221C10.778 2.37221 13.4183 4.95995 13.4183 8.1538C13.4184 9.53987 12.9126 10.8783 11.9958 11.9179L11.8269 12.5079L11.4546 13.8142C13.2804 12.5815 14.479 10.5145 14.479 8.17235C14.4784 4.39342 11.3631 1.33069 7.52044 1.33069ZM7.52044 2.98389C6.94896 2.98389 6.39851 3.07543 5.8827 3.23995V11.7212H11.3359C12.2701 10.7686 12.7941 9.48803 12.7955 8.1538C12.7955 5.29826 10.4341 2.98389 7.52044 2.98389ZM1.39993 4.91542C0.849336 5.91212 0.561169 7.03244 0.562505 8.17111C0.562505 9.34994 0.866798 10.4595 1.40055 11.428L1.39993 4.91542Z" fill="black"/>
</svg>
