<svg width="19" height="19" viewBox="0 0 19 19" fill="none" xmlns="http://www.w3.org/2000/svg">
<path d="M5.6399 4.47974C6.77336 3.61768 8.16225 3.14673 9.59105 3.14673C11.0198 3.14673 12.4087 3.61768 13.5422 4.47974L15.1466 2.4922C13.5582 1.25497 11.5946 0.584473 9.58307 0.584473C7.56359 0.584473 5.60797 1.25497 4.01953 2.4922L5.6399 4.47974Z" fill="white"/>
<path d="M15.6501 2.90723L14.0537 4.91872C15.0994 5.89254 15.7779 7.19362 15.9934 8.60646C16.2009 10.0193 15.9215 11.4641 15.2031 12.6933L11.6591 9.28493L10.0068 5.56527V11.2246L13.487 14.593C12.3615 15.4312 10.9966 15.8861 9.59172 15.8861C8.18687 15.8861 6.82192 15.4312 5.69644 14.593L9.20059 11.2246V5.56527L7.5483 9.28493L4.00424 12.6694C3.28585 11.4401 3.00647 10.0033 3.20603 8.59847C3.40558 7.19362 4.08406 5.89254 5.12173 4.91872L3.52531 2.90723C2.59939 3.73737 1.86503 4.75109 1.35417 5.89254C0.843319 7.03398 0.587891 8.25524 0.587891 9.50045C0.651748 11.8392 1.63355 14.0662 3.30979 15.6946C4.98604 17.3229 7.23699 18.2409 9.58373 18.2409C11.9225 18.2409 14.1735 17.3309 15.8577 15.6946C17.5339 14.0662 18.5157 11.8392 18.5796 9.50045C18.5796 8.25524 18.3162 7.026 17.8133 5.89254C17.3184 4.75109 16.5761 3.73737 15.6501 2.90723Z" fill="white"/>
</svg>
