<svg width="19" height="18" viewBox="0 0 19 18" fill="none" xmlns="http://www.w3.org/2000/svg">
<path fill-rule="evenodd" clip-rule="evenodd" d="M2.05677 10.4806C2.18582 10.6097 2.44393 10.7818 2.87411 11.0399V12.5885L8.0363 15.5998V14.8685C9.58496 15.5568 10.7895 15.987 11.6498 16.116H11.6929L9.49893 17.3636L2.05677 13.0187V10.4806ZM9.49893 0.15625L16.9411 4.45808V10.9969C17.6724 11.5131 18.2746 12.1583 18.7909 12.9327C18.6618 12.8897 18.4037 12.7606 18.0165 12.5885C18.4897 13.664 18.5758 15.2987 16.812 15.6858C12.5962 16.6753 7.0899 13.9221 5.02503 12.5455C6.10048 12.9757 7.0899 13.3629 8.0363 13.664V12.9757C7.04688 12.6315 5.32615 11.9433 3.47637 10.6957C1.75564 9.53423 0.422073 8.11463 0.25 7.85652C0.551128 7.94255 0.766219 7.98557 0.981311 7.98557C0.336037 6.82408 1.02433 5.57655 2.09978 5.10335V4.45808L9.49893 0.15625ZM9.49893 1.05963L2.87411 4.88826V7.98557C2.57299 7.72746 2.1428 6.99615 2.05677 6.56597C1.75564 6.78106 1.71262 7.21124 1.88469 7.68444C2.65902 9.66328 5.92841 11.7712 7.99329 12.8897V7.64143H4.76692L3.64844 5.10335H15.3494L14.2309 7.68444H11.0046V14.4383C11.951 14.6104 12.8543 14.7394 13.6717 14.7825C17.2422 14.9545 17.5003 13.9221 16.8981 13.0617L14.8332 14.2662C14.274 14.3093 13.7577 14.3093 13.2845 14.2232L16.1237 12.5885V4.88826L9.49893 1.05963Z" fill="url(#paint0_linear_1_5818)"/>
<defs>
<linearGradient id="paint0_linear_1_5818" x1="3.8523" y1="19.5607" x2="16.738" y2="-1.12315" gradientUnits="userSpaceOnUse">
<stop offset="0.0490979" stop-color="#AF893D"/>
<stop offset="0.2178" stop-color="#D29D40"/>
<stop offset="0.6393" stop-color="#FFCC74"/>
<stop offset="0.8142" stop-color="#E8B55D"/>
</linearGradient>
</defs>
</svg>
