<svg width="19" height="16" viewBox="0 0 19 16" fill="none" xmlns="http://www.w3.org/2000/svg">
<path d="M0.926116 0.869429C1.03006 0.805463 1.10202 0.933395 1.15799 1.00536C4.85201 5.63487 8.55403 10.2564 12.256 14.8779C12.328 14.9419 12.272 15.0858 12.1681 15.0698C10.401 15.0698 8.62599 15.0698 6.85893 15.0698C6.71501 15.0698 6.57909 14.9979 6.49113 14.8939C4.65212 12.5991 2.8211 10.3044 0.982085 8.0096C0.902128 7.91365 0.862149 7.79372 0.870145 7.67378C0.870145 5.45897 0.870145 3.23616 0.870145 1.02135C0.870145 0.965378 0.870146 0.893416 0.926116 0.869429Z" fill="white"/>
<path d="M18.0283 0.853477C18.1002 0.821494 18.1882 0.893455 18.1722 0.973412C18.1722 3.18823 18.1722 5.41103 18.1722 7.62585C18.1802 7.75378 18.1482 7.88171 18.0682 7.97766C17.5085 8.67328 16.9488 9.37691 16.3891 10.0725C16.2932 10.1925 16.1413 10.2564 15.9893 10.2564C14.2303 10.2564 12.4712 10.2564 10.7122 10.2564C10.6082 10.2724 10.5523 10.1285 10.6242 10.0645C13.0629 7.01018 15.5016 3.96381 17.9403 0.909447C17.9723 0.893455 17.9963 0.869468 18.0283 0.853477Z" fill="white"/>
</svg>
