<svg width="23" height="23" viewBox="0 0 23 23" fill="none" xmlns="http://www.w3.org/2000/svg">
<g clip-path="url(#clip0_1_5834)">
<path d="M21.0003 11.3521C21.0017 16.6071 16.8597 20.8686 11.7483 20.87C6.63689 20.8718 2.49162 16.6126 2.49023 11.3576V11.3516C2.48885 6.09616 6.63087 1.83464 11.7423 1.83325C16.8537 1.83186 20.9985 6.09014 21.0003 11.3456V11.3521Z" fill="url(#paint0_linear_1_5834)"/>
<path d="M12.65 1.96479L8.9447 2.19637C8.86267 2.20062 8.78303 2.22547 8.71313 2.26862L5.47102 4.35283C5.4011 4.39596 5.34315 4.45598 5.3025 4.52736C5.26184 4.59875 5.23979 4.67921 5.23836 4.76135C5.23693 4.84348 5.25617 4.92466 5.29432 4.99742C5.33246 5.07018 5.38829 5.13217 5.45666 5.17771C5.88416 5.4658 6.30748 5.79742 6.42651 6.10403C6.68264 6.78302 6.9735 7.77788 7.22268 8.63704C7.3319 9.02019 7.4477 9.40142 7.57005 9.78058C7.62239 9.93898 7.66546 10.0807 7.71456 10.2002C7.76365 10.3197 7.79468 10.4105 7.91742 10.5476C7.93595 10.5633 7.95494 10.5777 7.97532 10.5911C8.19439 10.7694 8.42273 10.8671 8.69877 10.9528C8.97481 11.0385 9.29346 11.1061 9.59637 11.1557C9.89927 11.2052 10.1897 11.2233 10.4504 11.2279C10.7112 11.2326 10.8951 11.2895 11.2031 11.0978C11.2179 11.089 11.2327 11.0793 11.2466 11.0691C11.3786 10.9639 11.392 10.8935 11.4203 10.8375C11.4485 10.7815 11.4726 10.7347 11.4925 10.6782C11.5328 10.5652 11.5694 10.4383 11.6083 10.2873C11.7929 9.55978 11.9236 8.81965 11.9992 8.07291C12.0326 7.745 12.0724 7.52778 11.9992 7.23367C11.9955 7.21839 12.0039 7.20588 11.9992 7.19013H11.9839C11.9098 6.83211 11.7199 6.31384 11.3906 5.72841C11.097 5.20796 10.7035 4.75057 10.2327 4.38247C10.2494 4.36487 10.2869 4.33338 10.3773 4.2954L12.1868 4.30929C12.241 4.30883 12.2947 4.29864 12.3461 4.28058C12.3887 4.26668 12.4337 4.29632 12.65 4.1935C12.7583 4.14256 12.8908 4.02491 12.9538 3.90403C13.0168 3.78314 13.0432 3.68079 13.0552 3.57102L13.171 2.51456C13.1799 2.44271 13.1727 2.3698 13.1501 2.30104C13.1274 2.23229 13.0899 2.16939 13.0401 2.11685C12.9903 2.06431 12.9295 2.02343 12.8621 1.99714C12.7946 1.97086 12.7222 1.95981 12.65 1.96479Z" fill="url(#paint1_linear_1_5834)"/>
<path d="M12.6793 2.45654L12.5635 3.51162C12.5311 3.81174 12.4047 3.73856 12.1824 3.81082L10.276 3.80387C9.71373 3.9845 9.65213 4.2837 9.69011 4.53936C10.7581 5.13313 11.4251 6.81856 11.5219 7.31924C11.659 7.80185 11.1305 10.5275 10.9429 10.6771C10.6266 10.874 8.75221 10.5984 8.27979 10.214C8.02598 9.92913 7.42897 7.35768 6.89032 5.92976C6.69209 5.4189 6.16038 5.05995 5.73242 4.77187L8.97453 2.68766L12.6793 2.45654Z" fill="url(#paint2_radial_1_5834)"/>
<path d="M3.43144 7.82662C3.34368 7.83487 3.26056 7.86985 3.19331 7.92683C3.12605 7.98381 3.0779 8.06006 3.05535 8.14527L1.94099 11.952C1.91543 12.0397 1.91849 12.1333 1.94972 12.2191C1.98095 12.305 2.03873 12.3787 2.11468 12.4295C2.54217 12.7171 2.98449 13.0529 3.11325 13.3845C3.12524 13.41 3.13983 13.4342 3.15678 13.4568C3.16049 13.4693 3.16558 13.4748 3.17114 13.5003C3.19106 13.5864 3.21421 13.736 3.24339 13.9056C3.30221 14.2446 3.38327 14.7045 3.48933 15.1792C3.59539 15.654 3.726 16.1445 3.92377 16.5687C4.12154 16.993 4.386 17.3857 4.85009 17.5386C4.73754 17.5015 4.8311 17.5432 4.89363 17.5821C4.95615 17.621 5.03813 17.6743 5.13956 17.7414C5.34243 17.8758 5.60179 18.0443 5.86301 18.219C6.12424 18.3936 6.38685 18.5788 6.60129 18.7108C6.70828 18.7771 6.80554 18.8257 6.89076 18.8702C6.93337 18.8924 6.97182 18.9095 7.02091 18.928C7.07 18.9466 7.09872 18.9924 7.29603 18.9568C7.52297 18.916 7.59291 18.7896 7.62904 18.7252C7.66516 18.6608 7.67304 18.6122 7.68693 18.5659C7.71426 18.4737 7.74251 18.3815 7.75918 18.2764C7.79299 18.0656 7.81754 17.8058 7.84626 17.5529C7.87497 17.3 7.90415 17.0439 7.93333 16.8726C7.94537 16.8022 7.95464 16.7711 7.96205 16.7424C7.994 16.7151 8.03939 16.7188 8.06348 16.6845C8.15796 16.5516 8.16862 16.4136 8.16491 16.3084C8.15704 16.0977 8.08988 15.9365 8.00558 15.7582C7.83699 15.4011 7.56095 14.9903 7.25295 14.5568C6.65872 13.7198 5.97927 12.8959 5.67544 12.5596C5.64996 12.4763 5.6356 12.3906 5.60318 12.2993C5.56289 12.1854 5.5175 12.0613 5.48739 11.952C6.12794 12.2252 6.79165 12.4716 7.52807 12.5596C7.57193 12.5616 7.61584 12.5568 7.65822 12.5453C7.88805 12.5067 8.11192 12.4385 8.32424 12.3424C8.44929 12.2859 8.58175 12.228 8.70032 12.1252C8.81889 12.0224 8.95089 11.8575 8.97544 11.6333C8.98661 11.5313 8.96098 11.4286 8.90318 11.3438C8.08015 10.1137 6.89725 9.79921 5.66108 9.3467L4.95106 8.47782C4.90763 8.42741 4.85309 8.38777 4.79173 8.36203L3.64819 7.87016C3.58109 7.83666 3.50627 7.82163 3.43144 7.82662Z" fill="url(#paint3_linear_1_5834)"/>
<path d="M5.39779 9.71065C6.7039 10.1979 7.77518 10.4461 8.53754 11.5855C8.50512 11.8852 7.84929 12.0871 7.58297 12.1307C6.7919 12.0357 6.06381 11.7518 5.34916 11.4276C4.64238 11.2752 5.25745 12.522 5.29543 12.7777C5.80028 13.327 8.30411 16.3968 7.61678 16.4802C7.44819 16.501 7.37547 18.5157 7.21846 18.5435C7.06145 18.5713 5.15185 17.1828 4.98049 17.1267C3.87956 16.7641 3.69893 13.3293 3.51922 13.2265C3.32145 12.7156 2.78929 12.3567 2.36133 12.0686L3.47476 8.26514L4.62432 8.75655L5.39779 9.71065Z" fill="url(#paint4_radial_1_5834)"/>
<path d="M20.9392 6.35915L20.9248 3.14576C20.9258 3.06947 20.9114 2.99377 20.8827 2.92311C20.8539 2.85244 20.8113 2.78825 20.7574 2.7343C20.7034 2.68036 20.6392 2.63775 20.5685 2.60898C20.4979 2.58022 20.4222 2.56588 20.3459 2.56681L17.4076 2.5381C17.295 2.53746 17.1847 2.56995 17.0904 2.63151C16.9961 2.69307 16.922 2.781 16.8773 2.88435C16.8326 2.9877 16.8192 3.10191 16.8389 3.21279C16.8586 3.32366 16.9104 3.4263 16.988 3.50795L19.9406 6.75005C20.1004 6.92652 20.3528 6.9858 20.5752 6.89919C20.6834 6.85662 20.7761 6.78219 20.8411 6.68576C20.9061 6.58933 20.9403 6.47544 20.9392 6.35915Z" fill="black" fill-opacity="0.318"/>
<path d="M20.747 6.35965L20.7326 3.14626C20.7313 3.04692 20.6913 2.95203 20.621 2.88179C20.5508 2.81154 20.4559 2.77149 20.3566 2.77017L17.4183 2.74146C17.3444 2.74115 17.272 2.76221 17.2097 2.80209C17.1475 2.84197 17.0982 2.89898 17.0676 2.96626C17.037 3.03354 17.0265 3.10822 17.0374 3.18132C17.0482 3.25442 17.08 3.32282 17.1288 3.3783L20.0814 6.62041C20.1337 6.67748 20.202 6.7174 20.2774 6.73489C20.3527 6.75238 20.4316 6.74664 20.5037 6.71841C20.5757 6.69019 20.6376 6.6408 20.681 6.57676C20.7244 6.51272 20.7474 6.43703 20.747 6.35965Z" fill="black" fill-opacity="0.318"/>
<path d="M20.6205 6.35932L20.6061 3.14593C20.6067 3.11156 20.6004 3.07743 20.5876 3.04554C20.5747 3.01364 20.5557 2.98463 20.5315 2.9602C20.5071 2.93601 20.4781 2.91691 20.4462 2.90403C20.4143 2.89115 20.3802 2.88474 20.3458 2.88517L17.4075 2.85645C17.3571 2.85605 17.3076 2.8705 17.2654 2.898C17.2231 2.92549 17.1898 2.96482 17.1697 3.01109C17.1496 3.05735 17.1436 3.1085 17.1524 3.15818C17.1611 3.20785 17.1843 3.25384 17.219 3.29043L20.1717 6.53254C20.2063 6.57177 20.2522 6.59945 20.3031 6.61186C20.354 6.62427 20.4074 6.62082 20.4563 6.60196C20.5051 6.5831 20.547 6.54975 20.5764 6.50637C20.6057 6.463 20.6211 6.41168 20.6205 6.35932Z" fill="black" fill-opacity="0.318"/>
<path d="M20.4786 6.36151L20.4642 3.14812C20.4623 3.13282 20.4574 3.11804 20.4499 3.10458C20.4435 3.08821 20.4337 3.07338 20.4211 3.06105C20.4167 3.05592 20.4119 3.05112 20.4068 3.04669C20.389 3.03703 20.3691 3.03209 20.3489 3.03233C20.3445 3.0272 20.3397 3.02241 20.3345 3.01797L17.3963 2.98926C17.3861 2.99273 17.3764 2.99755 17.3675 3.00362C17.3523 3.00565 17.3375 3.01052 17.324 3.01797C17.313 3.02598 17.3033 3.03567 17.2953 3.04669C17.288 3.06024 17.2831 3.07498 17.2809 3.09023C17.2735 3.11374 17.2735 3.13896 17.2809 3.16248C17.2875 3.17879 17.2972 3.1936 17.3097 3.20602L20.2623 6.44812C20.2761 6.46 20.2923 6.46873 20.3098 6.47369C20.3273 6.47865 20.3457 6.47972 20.3637 6.47684C20.3839 6.47686 20.4038 6.47193 20.4216 6.46248C20.4272 6.45785 20.4313 6.45322 20.436 6.44812C20.4486 6.43591 20.4584 6.42104 20.4647 6.40458C20.4718 6.39114 20.4765 6.37657 20.4786 6.36151Z" fill="black" fill-opacity="0.333"/>
<path d="M17.582 3.1678L20.3276 3.15576L20.3012 6.10561L17.582 3.1678Z" fill="url(#paint5_linear_1_5834)"/>
<path d="M17.6011 19.9986L20.8145 19.9842C20.8908 19.9851 20.9664 19.9707 21.0371 19.9419C21.1077 19.9131 21.1719 19.8705 21.2258 19.8166C21.2797 19.7626 21.3224 19.6985 21.3511 19.6278C21.3799 19.5572 21.3943 19.4815 21.3934 19.4053L21.4222 16.467C21.4232 16.3542 21.391 16.2436 21.3295 16.149C21.268 16.0545 21.18 15.9801 21.0765 15.9353C20.973 15.8905 20.8585 15.8773 20.7475 15.8972C20.6365 15.9171 20.5338 15.9694 20.4523 16.0474L17.2102 19C17.1239 19.0781 17.0634 19.1806 17.0367 19.2938C17.0101 19.4071 17.0185 19.5258 17.0609 19.6342C17.1034 19.7426 17.1778 19.8355 17.2742 19.9006C17.3707 19.9657 17.4847 19.9998 17.6011 19.9986Z" fill="black" fill-opacity="0.318"/>
<path d="M17.6105 19.8059L20.8239 19.7916C20.9232 19.7901 21.018 19.75 21.0882 19.6798C21.1585 19.6096 21.1985 19.5148 21.2 19.4155L21.2287 16.4772C21.2292 16.4032 21.2083 16.3307 21.1684 16.2683C21.1286 16.206 21.0715 16.1565 21.0042 16.1259C20.9368 16.0953 20.862 16.0848 20.7889 16.0958C20.7157 16.1068 20.6473 16.1387 20.5919 16.1877L17.3498 19.1404C17.2924 19.1925 17.2523 19.2608 17.2347 19.3363C17.217 19.4117 17.2227 19.4908 17.251 19.5629C17.2792 19.6351 17.3288 19.6969 17.393 19.7403C17.4572 19.7837 17.533 19.8066 17.6105 19.8059Z" fill="black" fill-opacity="0.318"/>
<path d="M17.6004 19.6807L20.8138 19.6663C20.848 19.6666 20.882 19.6601 20.9137 19.6471C20.9455 19.6341 20.9743 19.615 20.9985 19.5907C21.0227 19.5665 21.0419 19.5377 21.0549 19.506C21.0678 19.4743 21.0744 19.4403 21.0741 19.406L21.1028 16.4677C21.1041 16.4169 21.0901 16.3669 21.0628 16.324C21.0355 16.2812 20.9959 16.2474 20.9493 16.2272C20.9027 16.2069 20.8511 16.2011 20.8011 16.2103C20.7511 16.2196 20.705 16.2436 20.6688 16.2792L17.4267 19.2319C17.3853 19.2325 17.3447 19.2431 17.3083 19.2627C17.2719 19.2824 17.2408 19.3106 17.2177 19.3449C17.1946 19.3792 17.1801 19.4186 17.1754 19.4597C17.1708 19.5008 17.1762 19.5424 17.1911 19.581C17.2061 19.6196 17.2301 19.654 17.2612 19.6813C17.2923 19.7086 17.3295 19.7279 17.3697 19.7377C17.4099 19.7475 17.4519 19.7474 17.492 19.7375C17.5322 19.7276 17.5694 19.7081 17.6004 19.6807Z" fill="black" fill-opacity="0.318"/>
<path d="M17.5876 19.5411L20.801 19.5267C20.8163 19.5247 20.831 19.5198 20.8445 19.5124C20.8609 19.506 20.8757 19.4962 20.8881 19.4836C20.8932 19.4792 20.898 19.4744 20.9024 19.4693C20.9121 19.4515 20.917 19.4316 20.9168 19.4114C20.9219 19.407 20.9267 19.4022 20.9311 19.397L20.9599 16.4588C20.9562 16.4487 20.9514 16.439 20.9455 16.43C20.9433 16.4148 20.9384 16.4001 20.9311 16.3865C20.9231 16.3755 20.9135 16.3658 20.9024 16.3578C20.8889 16.3505 20.8741 16.3456 20.8589 16.3434C20.8354 16.336 20.8102 16.336 20.7866 16.3434C20.7703 16.3498 20.7554 16.3596 20.7431 16.3722L17.501 19.3248C17.4891 19.3386 17.4804 19.3548 17.4754 19.3723C17.4705 19.3898 17.4694 19.4082 17.4723 19.4262C17.4723 19.4466 17.4774 19.4665 17.4866 19.4841C17.4908 19.4897 17.4964 19.4938 17.501 19.4985C17.5131 19.5112 17.528 19.521 17.5445 19.5272C17.5579 19.5345 17.5725 19.5392 17.5876 19.5411Z" fill="black" fill-opacity="0.333"/>
<path d="M20.7836 16.0845L20.7933 19.3701H17.6406L20.7836 16.0845Z" fill="url(#paint6_linear_1_5834)"/>
<path d="M1.62111 16.1777L1.63546 19.3911C1.63472 19.4674 1.64919 19.543 1.67802 19.6136C1.70685 19.6841 1.74947 19.7483 1.80338 19.8022C1.85729 19.8561 1.92141 19.8987 1.99198 19.9275C2.06256 19.9564 2.13818 19.9708 2.21441 19.9701L5.15268 19.9988C5.38334 20.0011 5.59222 19.8649 5.68393 19.6533C5.72868 19.5498 5.74197 19.4353 5.72212 19.3243C5.70227 19.2133 5.65016 19.1105 5.57231 19.0289L2.61967 15.7868C2.54139 15.701 2.43892 15.641 2.3258 15.6146C2.21268 15.5882 2.09422 15.5968 1.98605 15.6391C1.87789 15.6815 1.78511 15.7556 1.71996 15.8518C1.6548 15.9479 1.62033 16.0616 1.62111 16.1777Z" fill="black" fill-opacity="0.318"/>
<path d="M1.82423 16.1874L1.83859 19.4008C1.84003 19.5002 1.88018 19.5951 1.9505 19.6653C2.02082 19.7356 2.11576 19.7756 2.21514 19.7769L5.15341 19.8056C5.22766 19.8067 5.30062 19.7862 5.36335 19.7464C5.42609 19.7067 5.47587 19.6495 5.50659 19.582C5.53732 19.5144 5.54766 19.4393 5.53634 19.3659C5.52503 19.2925 5.49255 19.224 5.44289 19.1688L2.49026 15.9267C2.43811 15.8693 2.36978 15.829 2.29428 15.8112C2.21879 15.7935 2.13968 15.799 2.06739 15.8271C1.99516 15.8555 1.93324 15.9051 1.88983 15.9695C1.84641 16.0338 1.82354 16.1098 1.82423 16.1874Z" fill="black" fill-opacity="0.318"/>
<path d="M1.94143 16.1778L1.95579 19.3912C1.95513 19.4255 1.96144 19.4597 1.97434 19.4915C1.98724 19.5233 2.00645 19.5522 2.03082 19.5765C2.07992 19.626 2.14661 19.6529 2.21655 19.6515L5.15482 19.6802C5.2056 19.6814 5.25558 19.6674 5.29836 19.64C5.34115 19.6127 5.37479 19.5731 5.39498 19.5265C5.41518 19.4799 5.42101 19.4284 5.41172 19.3784C5.40244 19.3285 5.37846 19.2825 5.34286 19.2462L2.39023 16.0041C2.35552 15.9649 2.30961 15.9372 2.25869 15.9248C2.20777 15.9124 2.15427 15.9159 2.10539 15.9348C2.05651 15.9537 2.0146 15.9871 1.98529 16.0306C1.95597 16.074 1.94067 16.1254 1.94143 16.1778Z" fill="black" fill-opacity="0.318"/>
<path d="M2.06836 16.1671L2.08272 19.3805C2.08475 19.3958 2.08962 19.4105 2.09708 19.424C2.1036 19.4403 2.11337 19.4551 2.12579 19.4676C2.12996 19.4731 2.13505 19.4773 2.14015 19.4819C2.15792 19.4915 2.17784 19.4965 2.19804 19.4963C2.20221 19.5018 2.20731 19.506 2.2124 19.5106L5.15068 19.5394C5.16081 19.5358 5.17046 19.531 5.17939 19.525C5.19462 19.5228 5.20935 19.5179 5.22293 19.5106C5.23395 19.5026 5.24364 19.4929 5.25164 19.4819C5.25897 19.4684 5.26383 19.4536 5.266 19.4384C5.2734 19.4149 5.2734 19.3897 5.266 19.3661C5.25937 19.3499 5.24961 19.3351 5.23729 19.3226L2.28465 16.0805C2.27094 16.0685 2.25472 16.0597 2.23718 16.0547C2.21963 16.0497 2.2012 16.0487 2.18322 16.0518C2.16305 16.0518 2.14318 16.0567 2.12533 16.0661C2.12009 16.0704 2.11528 16.0753 2.11097 16.0805C2.0984 16.0928 2.08861 16.1076 2.08225 16.124C2.07494 16.1374 2.07023 16.152 2.06836 16.1671Z" fill="black" fill-opacity="0.333"/>
<path d="M5.22768 19.3595H2.25977V16.1257L5.22768 19.3595Z" fill="url(#paint7_linear_1_5834)"/>
<path d="M5.93436 2.57231L2.72097 2.58667C2.64473 2.58593 2.56912 2.6004 2.49854 2.62923C2.42796 2.65806 2.36385 2.70068 2.30994 2.75459C2.25603 2.8085 2.21341 2.87261 2.18458 2.94319C2.15575 3.01377 2.14128 3.08938 2.14202 3.16562L2.11331 6.10389C2.11224 6.21669 2.14447 6.32729 2.20596 6.42186C2.26744 6.51642 2.35546 6.59075 2.45898 6.63555C2.56251 6.68034 2.67694 6.6936 2.78797 6.67367C2.89899 6.65374 3.00167 6.60151 3.08316 6.52351L6.32526 3.57088C6.41182 3.49291 6.47256 3.39041 6.49937 3.27704C6.52618 3.16367 6.51779 3.04482 6.47532 2.93634C6.43285 2.82786 6.35833 2.73491 6.26168 2.66987C6.16503 2.60483 6.05085 2.5708 5.93436 2.57231Z" fill="black" fill-opacity="0.318"/>
<path d="M5.9346 2.7754L2.72121 2.78976C2.62192 2.79119 2.52709 2.83128 2.45687 2.9015C2.38665 2.97172 2.34656 3.06655 2.34513 3.16584L2.31641 6.10412C2.31599 6.17802 2.33695 6.25046 2.37677 6.31272C2.41659 6.37497 2.47357 6.42438 2.54084 6.45497C2.60811 6.48557 2.6828 6.49606 2.75589 6.48517C2.82898 6.47428 2.89737 6.44247 2.95279 6.39359L6.1949 3.44096C6.25219 3.38884 6.29232 3.32056 6.30997 3.24515C6.32762 3.16974 6.32197 3.09075 6.29376 3.01862C6.26555 2.94649 6.21611 2.88462 6.15198 2.84119C6.08785 2.79776 6.01205 2.77482 5.9346 2.7754Z" fill="black" fill-opacity="0.318"/>
<path d="M5.93602 2.89113L2.72263 2.90549C2.68829 2.90493 2.65419 2.91128 2.62236 2.92416C2.59052 2.93704 2.5616 2.95619 2.53732 2.98047C2.51304 3.00476 2.49388 3.03368 2.481 3.06551C2.46812 3.09735 2.46177 3.13145 2.46234 3.16579L2.43362 6.10406C2.43288 6.15465 2.44713 6.20432 2.47459 6.24681C2.50204 6.28931 2.54147 6.32272 2.58789 6.34283C2.63431 6.36295 2.68565 6.36886 2.73543 6.35984C2.78521 6.35081 2.8312 6.32724 2.8676 6.2921L6.1097 3.33947C6.1488 3.30472 6.17633 3.25885 6.18863 3.20801C6.20092 3.15717 6.19738 3.10379 6.17849 3.05501C6.15959 3.00624 6.12624 2.96441 6.08291 2.93512C6.03957 2.90583 5.98832 2.89048 5.93602 2.89113Z" fill="black" fill-opacity="0.318"/>
<path d="M5.93475 3.021L2.72136 3.03535C2.70607 3.03731 2.69129 3.04218 2.67783 3.04971C2.6614 3.05623 2.64656 3.06618 2.63429 3.07889C2.62905 3.0832 2.62424 3.08801 2.61993 3.09325C2.61063 3.11114 2.60571 3.13098 2.60557 3.15114C2.60034 3.15546 2.59553 3.16026 2.59122 3.1655L2.5625 6.10377C2.56587 6.11399 2.57071 6.12366 2.57686 6.13249C2.57881 6.14779 2.58369 6.16257 2.59122 6.17603C2.59922 6.18705 2.60891 6.19674 2.61993 6.20474C2.63339 6.21227 2.64817 6.21715 2.66347 6.2191C2.68698 6.2265 2.7122 6.2265 2.73572 6.2191C2.75209 6.2127 2.76693 6.20291 2.77926 6.19039L6.02136 3.23775C6.03341 3.22406 6.04224 3.20784 6.04721 3.19029C6.05218 3.17274 6.05316 3.1543 6.05008 3.13632C6.04994 3.11616 6.04502 3.09632 6.03572 3.07843C6.03141 3.07319 6.0266 3.06838 6.02136 3.06407C6.00911 3.05144 5.99425 3.04164 5.97783 3.03535C5.9645 3.0279 5.94989 3.02303 5.93475 3.021Z" fill="black" fill-opacity="0.333"/>
<path d="M2.69922 6.10574L2.71636 3.17256L5.93345 3.1582L2.69922 6.10574Z" fill="url(#paint8_linear_1_5834)"/>
<path d="M5.48624 5.27939C5.43251 5.28495 5.38388 5.31367 5.35285 5.35813C5.32182 5.40259 5.31255 5.45863 5.32691 5.51097L5.64556 6.62533L7.84556 16.4095L7.6427 17.4804C7.63797 17.5063 7.63886 17.5329 7.64531 17.5584C7.65176 17.584 7.66362 17.6078 7.68009 17.6284C7.69656 17.6489 7.71725 17.6657 7.74077 17.6776C7.76428 17.6894 7.79007 17.6961 7.81638 17.6971H11.015C11.0427 17.6963 11.07 17.6892 11.0947 17.6764C11.1193 17.6635 11.1408 17.6453 11.1575 17.6231C11.1742 17.6009 11.1856 17.5751 11.191 17.5479C11.1964 17.5206 11.1956 17.4925 11.1886 17.4655L10.9858 16.4378L11.536 14.3392L12.2164 16.4674L11.9126 17.4516C11.9027 17.4794 11.8997 17.5092 11.9037 17.5384C11.9077 17.5677 11.9187 17.5955 11.9357 17.6196C11.9527 17.6437 11.9753 17.6633 12.0015 17.6769C12.0277 17.6905 12.0567 17.6976 12.0862 17.6976L15.6901 17.7124C15.7196 17.7125 15.7487 17.7055 15.775 17.6919C15.8012 17.6784 15.8238 17.6587 15.8409 17.6346C15.8579 17.6105 15.8689 17.5826 15.8729 17.5533C15.8768 17.5241 15.8737 17.4943 15.8638 17.4665L15.4441 16.3373L17.0939 6.85691L17.7164 5.53969C17.7289 5.51228 17.7345 5.48222 17.7327 5.45214C17.731 5.42207 17.7218 5.39288 17.7062 5.36715C17.6905 5.34142 17.6687 5.31992 17.6428 5.30454C17.6169 5.28916 17.5876 5.28037 17.5575 5.27893H14.4164C14.3888 5.27793 14.3614 5.28312 14.3361 5.29412C14.3109 5.30512 14.2884 5.32165 14.2703 5.3425C14.2523 5.36334 14.2391 5.38796 14.2319 5.41455C14.2246 5.44115 14.2234 5.46903 14.2283 5.49615L14.4164 6.56697L13.3307 12.6895L11.6374 6.14781C11.6247 6.11195 11.6011 6.08091 11.57 6.05896C11.5389 6.03702 11.5018 6.02523 11.4638 6.02523C11.4257 6.02523 11.3886 6.03702 11.3575 6.05896C11.3264 6.08091 11.3028 6.11195 11.2901 6.14781L9.65466 12.6464L8.2939 6.56743L8.46758 5.49661C8.47139 5.46736 8.46811 5.43763 8.45804 5.4099C8.44796 5.38218 8.43138 5.35727 8.40969 5.33729C8.39299 5.3194 8.37286 5.30506 8.3505 5.29512C8.32814 5.28517 8.30401 5.27982 8.27954 5.27939H5.5006C5.49582 5.27893 5.49101 5.27893 5.48624 5.27939Z" fill="black" fill-opacity="0.288"/>
<path d="M5.42696 5.13425C5.38269 5.14466 5.34098 5.16394 5.30439 5.19095C5.26779 5.21795 5.23706 5.25211 5.21406 5.29135C5.19106 5.33059 5.17627 5.3741 5.1706 5.41922C5.16492 5.46435 5.16847 5.51016 5.18103 5.55387L5.49922 6.65387H5.48486L7.68486 16.4089L7.482 17.451C7.4743 17.4992 7.47714 17.5485 7.49033 17.5955C7.50351 17.6425 7.52673 17.6861 7.55839 17.7232C7.59004 17.7604 7.62937 17.7902 7.67368 17.8107C7.71798 17.8312 7.76619 17.8419 7.81501 17.8419H11.0136C11.0638 17.8422 11.1135 17.8312 11.1589 17.8099C11.2044 17.7885 11.2446 17.7573 11.2764 17.7185C11.3083 17.6797 11.3312 17.6342 11.3433 17.5855C11.3554 17.5367 11.3566 17.4859 11.3466 17.4367L11.1437 16.4524L11.549 14.9036L12.0557 16.4668L11.7662 17.4075C11.7361 17.5089 11.7556 17.6182 11.8176 17.7039C11.8797 17.7896 11.9788 17.8401 12.0844 17.8419L15.6887 17.8567C15.7425 17.8566 15.7956 17.8436 15.8434 17.8189C15.8912 17.7941 15.9324 17.7583 15.9636 17.7144C15.9947 17.6705 16.015 17.6198 16.0226 17.5665C16.0302 17.5132 16.025 17.4588 16.0073 17.4079L15.6021 16.3079L17.2375 6.92899L17.86 5.61177C17.883 5.56058 17.893 5.50447 17.8889 5.44849C17.8849 5.3925 17.867 5.33839 17.8369 5.29103C17.8068 5.24368 17.7653 5.20455 17.7163 5.17719C17.6673 5.14982 17.6123 5.13506 17.5561 5.13425H14.415C14.3662 5.13432 14.3181 5.14495 14.2738 5.16542C14.2295 5.18588 14.1902 5.21569 14.1586 5.25279C14.1269 5.28989 14.1037 5.33341 14.0905 5.38035C14.0773 5.42728 14.0744 5.47653 14.082 5.5247L14.2557 6.5668L13.315 11.9515L11.7954 6.10411C11.7816 6.02577 11.7407 5.9548 11.6798 5.90365C11.6189 5.85251 11.5419 5.82447 11.4624 5.82447C11.3828 5.82447 11.3059 5.85251 11.245 5.90365C11.184 5.9548 11.1431 6.02577 11.1294 6.10411L9.65328 11.9515L8.45185 6.52373L8.61117 5.52516C8.61896 5.47697 8.61618 5.42766 8.60302 5.38066C8.58986 5.33365 8.56664 5.29007 8.53496 5.25293C8.50328 5.21579 8.46391 5.18598 8.41957 5.16557C8.37523 5.14515 8.32698 5.13463 8.27816 5.13472H5.49922C5.47522 5.13202 5.451 5.13186 5.42696 5.13425Z" fill="black" fill-opacity="0.288"/>
<path d="M5.39943 4.9896C5.33435 5.00328 5.27282 5.03031 5.21873 5.06899C5.16463 5.10766 5.11915 5.15714 5.08515 5.2143C5.05115 5.27145 5.02938 5.33504 5.02122 5.40103C5.01305 5.46703 5.01867 5.53401 5.03771 5.59772L5.35636 6.68336V6.71208L7.542 16.3805L7.33914 17.4226C7.31459 17.5634 7.3535 17.7074 7.44566 17.8172C7.53783 17.9256 7.674 17.9881 7.81665 17.9872H11.0152C11.0872 17.9881 11.1585 17.9728 11.2238 17.9425C11.2891 17.9121 11.3468 17.8676 11.3926 17.812C11.4384 17.7565 11.4712 17.6914 11.4885 17.6215C11.5058 17.5516 11.5073 17.4788 11.4927 17.4082L11.2903 16.4236L11.5655 15.4102L11.8985 16.4666L11.6233 17.3642C11.6013 17.4365 11.5965 17.5129 11.6094 17.5873C11.6223 17.6617 11.6525 17.732 11.6975 17.7926C11.7426 17.8532 11.8013 17.9023 11.8689 17.936C11.9364 17.9698 12.011 17.9871 12.0865 17.9867L15.6903 18.0011C15.7663 18 15.8409 17.9809 15.9081 17.9454C15.9753 17.9099 16.0331 17.859 16.0769 17.7969C16.1206 17.7348 16.1491 17.6633 16.1599 17.5881C16.1707 17.5129 16.1636 17.4362 16.1391 17.3642L15.7482 16.3078L17.3836 6.95755L17.9913 5.66951C18.0245 5.59652 18.0389 5.5164 18.0333 5.43642C18.0276 5.35645 18.0021 5.27915 17.959 5.21155C17.9158 5.14396 17.8565 5.0882 17.7864 5.04936C17.7162 5.01052 17.6375 4.98981 17.5573 4.98913H14.4167C14.346 4.98844 14.2762 5.00333 14.212 5.03273C14.1478 5.06214 14.0909 5.10533 14.0453 5.15924C13.9997 5.21315 13.9665 5.27645 13.9482 5.34464C13.9298 5.41282 13.9267 5.48421 13.9391 5.55372L14.1128 6.56711L13.2736 11.2858L11.9276 6.07524C11.8992 5.97432 11.8385 5.88545 11.7549 5.82216C11.6713 5.75887 11.5693 5.72463 11.4645 5.72463C11.3596 5.72463 11.2576 5.75887 11.174 5.82216C11.0904 5.88545 11.0298 5.97432 11.0013 6.07524L9.66929 11.3724L8.59846 6.55275L8.75779 5.53936C8.76788 5.4709 8.76304 5.40107 8.7436 5.33466C8.72417 5.26824 8.6906 5.20681 8.64519 5.15459C8.59979 5.10237 8.54363 5.06058 8.48056 5.0321C8.41749 5.00363 8.34901 4.98912 8.27981 4.9896H5.50086C5.46715 4.98589 5.43314 4.98589 5.39943 4.9896Z" fill="black" fill-opacity="0.288"/>
<path d="M5.42781 4.81598C5.33317 4.82571 5.24178 4.85594 5.16001 4.90456C5.07824 4.95319 5.00805 5.01905 4.95431 5.09756C4.90058 5.17607 4.86459 5.26534 4.84886 5.35917C4.83313 5.453 4.83803 5.54913 4.86322 5.64087L5.18187 6.72651V6.75523L7.36751 16.4093L7.17947 17.3791C7.1608 17.4736 7.16319 17.571 7.18648 17.6644C7.20977 17.7578 7.25338 17.8449 7.3142 17.9195C7.37502 17.9942 7.45156 18.0544 7.53835 18.0961C7.62514 18.1377 7.72005 18.1597 7.81631 18.1605H11.0149C11.2275 18.1614 11.4271 18.0581 11.5503 17.8854C11.6735 18.0581 11.8731 18.1614 12.0857 18.1605L15.6895 18.1753C15.903 18.1735 16.1022 18.0679 16.2226 17.8919C16.343 17.7159 16.3713 17.4926 16.2972 17.2925L15.9355 16.294L17.5422 7.0308L18.1498 5.75712C18.2485 5.55333 18.235 5.31342 18.1146 5.12167C18.0551 5.0276 17.9727 4.95019 17.8751 4.89672C17.7774 4.84325 17.6678 4.81547 17.5565 4.81598H14.4158C14.3199 4.81511 14.2248 4.83535 14.1375 4.87527C14.0502 4.91519 13.9728 4.97382 13.9107 5.04699C13.8485 5.12017 13.8032 5.20611 13.778 5.29874C13.7528 5.39136 13.7482 5.48839 13.7646 5.58297L13.9383 6.56718L13.2436 10.4605L12.1001 6.03177C12.0661 5.88838 11.9848 5.76064 11.8692 5.66923C11.7536 5.57782 11.6106 5.52808 11.4632 5.52808C11.3159 5.52808 11.1728 5.57782 11.0572 5.66923C10.9417 5.76064 10.8603 5.88838 10.8264 6.03177L9.68284 10.5911L8.77088 6.53847L8.93021 5.56862C8.9444 5.47509 8.93815 5.3796 8.91189 5.28872C8.88563 5.19784 8.83998 5.11374 8.77808 5.0422C8.71619 4.97067 8.63952 4.9134 8.55336 4.87435C8.4672 4.83529 8.3736 4.81538 8.27901 4.81598H5.50006C5.476 4.81459 5.45187 4.81459 5.42781 4.81598ZM11.579 16.0476L11.7235 16.482L11.5642 16.9739L11.4628 16.482L11.579 16.0476Z" fill="black" fill-opacity="0.288"/>
<path d="M5.49609 5.46718L5.8254 6.57784L8.03281 16.3982L7.81559 17.513H11.0179L10.7969 16.4385L11.5241 13.6813L12.3999 16.4746L12.0887 17.513L15.6962 17.5204L15.253 16.3426L16.9111 6.83304L17.5558 5.46533L14.4156 5.46718L14.5976 6.57228L13.3721 13.5581L11.4634 6.1911L9.6395 13.4279L8.10553 6.53847L8.27875 5.46718H5.49609Z" fill="black" fill-opacity="0.288"/>
<path d="M5.5 5.46729L7.06501 6.62333L9.15987 16.3659L7.81394 17.5131L8.03301 16.395L5.83301 6.58164L5.5 5.46729Z" fill="url(#paint9_linear_1_5834)"/>
<path d="M9.16224 16.3657L7.81445 17.513L11.0223 17.5093L9.78473 16.3731L9.16224 16.3657Z" fill="#792100"/>
<path d="M8.27154 5.47803L7.06641 6.62666L9.16127 16.3655L9.7782 16.371L9.65407 13.3411L8.16316 6.58173L8.27154 5.47803Z" fill="url(#paint10_linear_1_5834)"/>
<path d="M11.019 17.513L9.78516 16.375L11.5164 9.72266L11.5239 13.6776L10.7967 16.4384L11.019 17.513Z" fill="url(#paint11_linear_1_5834)"/>
<path d="M11.4627 6.17627L11.5206 9.69349L9.78191 16.3787L9.66797 13.3696L11.4627 6.17627Z" fill="url(#paint12_linear_1_5834)"/>
<path d="M5.49609 5.46729L7.06666 6.62518L8.27875 5.47099L5.49609 5.46729Z" fill="url(#paint13_linear_1_5834)"/>
<path d="M11.459 6.18384L11.5169 9.71912L13.1106 16.3798L14.1045 16.3849L11.459 6.18384Z" fill="url(#paint14_linear_1_5834)"/>
<path d="M11.5156 9.72266L11.523 13.6702L12.4012 16.4727L12.0899 17.5083L13.1186 16.3838L11.5156 9.72266Z" fill="url(#paint15_linear_1_5834)"/>
<path d="M14.1021 16.3789L13.1253 16.3826L12.0859 17.5132L15.6953 17.5197L14.1021 16.3789Z" fill="#792100"/>
<path d="M16.9079 6.81779L17.5531 5.4751L15.8153 6.45792L14.0938 16.3815L15.6977 17.5228L15.2535 16.3436L16.9079 6.81779Z" fill="url(#paint16_linear_1_5834)"/>
<path d="M14.598 6.56737L14.4109 5.47803L15.8175 6.45159L14.0941 16.3715L13.3711 13.5564L14.598 6.56737Z" fill="url(#paint17_linear_1_5834)"/>
<path d="M14.4082 5.47477L15.8079 6.46222L17.56 5.46875L14.4082 5.47477Z" fill="url(#paint18_linear_1_5834)"/>
<path d="M11.5206 0.806885C5.68809 0.806885 0.955078 5.54638 0.955078 11.3873C0.955078 17.2281 5.68809 21.9672 11.5206 21.9672C17.3536 21.9672 22.0862 17.2277 22.0862 11.3868C22.0862 5.54592 17.3536 0.806885 11.5206 0.806885ZM11.4771 2.63034C16.2611 2.63034 20.1326 6.51114 20.1326 11.3145C20.1326 16.118 16.2611 20.0131 11.4771 20.0131C6.69314 20.0131 2.80725 16.118 2.80725 11.3145C2.80771 6.51114 6.69314 2.63034 11.4771 2.63034Z" fill="black" fill-opacity="0.263"/>
<path d="M11.5218 0.647461C5.60214 0.647461 0.796875 5.45967 0.796875 11.3872C0.796875 17.3142 5.60214 22.1269 11.5218 22.1269C17.4414 22.1269 22.2466 17.3142 22.2466 11.3872C22.2466 5.45967 17.4414 0.647461 11.5218 0.647461ZM11.4782 2.78957C16.1751 2.78957 19.9744 6.59765 19.9744 11.3144C19.9744 16.0312 16.1751 19.8542 11.4782 19.8542C6.7818 19.8542 2.9677 16.0312 2.9677 11.3144C2.9677 6.59811 6.78134 2.78957 11.4782 2.78957Z" fill="black" fill-opacity="0.278"/>
<path d="M11.5208 0.386719C5.46038 0.386719 0.535156 5.31889 0.535156 11.3867C0.535156 17.4545 5.46038 22.3867 11.5208 22.3867C17.5817 22.3867 22.5064 17.4545 22.5064 11.3867C22.5064 5.31889 17.5817 0.386719 11.5208 0.386719ZM11.4773 3.04988C16.0333 3.04988 19.7127 6.73754 19.7127 11.3145C19.7127 15.8914 16.032 19.5934 11.4773 19.5934C6.92257 19.5934 3.22749 15.89 3.22749 11.3145C3.22749 6.73893 6.92118 3.04988 11.4773 3.04988Z" fill="black" fill-opacity="0.414"/>
<path d="M11.52 0.96582C5.77219 0.96582 1.11328 5.63121 1.11328 11.3869C1.11328 17.143 5.77219 21.8079 11.52 21.8079C17.2678 21.8079 21.9267 17.143 21.9267 11.3869C21.9267 5.63121 17.2678 0.96582 11.52 0.96582ZM11.4764 2.47108C16.3456 2.47108 20.2908 6.42692 20.2908 11.3146C20.2908 16.2023 16.3452 20.1725 11.4764 20.1725C6.60772 20.1725 2.64772 16.2023 2.64772 11.3146C2.64772 6.42692 6.60772 2.47108 11.4764 2.47108Z" fill="url(#paint19_linear_1_5834)"/>
<path d="M11.2575 1.03369C5.80061 1.03369 1.38672 5.45361 1.38672 10.9193C1.38672 16.3851 5.80108 20.805 11.2575 20.805C16.714 20.805 21.1288 16.3851 21.1288 10.9193C21.1288 5.45361 16.7145 1.03369 11.2575 1.03369ZM11.214 1.46767C16.374 1.46767 20.5642 5.66944 20.5642 10.8466C20.5642 16.0238 16.3754 20.2399 11.214 20.2399C6.05257 20.2399 1.84988 16.0252 1.84988 10.8466C1.84988 5.66805 6.05396 1.46767 11.214 1.46767Z" fill="url(#paint20_linear_1_5834)"/>
</g>
<defs>
<linearGradient id="paint0_linear_1_5834" x1="5.92177" y1="0.089463" x2="15.8713" y2="19.3314" gradientUnits="userSpaceOnUse">
<stop stop-color="#5B779E"/>
<stop offset="0.399" stop-color="#2D3B50"/>
<stop offset="1" stop-color="#0C0E14"/>
</linearGradient>
<linearGradient id="paint1_linear_1_5834" x1="9.51578" y1="4.28984" x2="12.5175" y2="10.8658" gradientUnits="userSpaceOnUse">
<stop stop-opacity="0"/>
<stop offset="1" stop-opacity="0.621"/>
</linearGradient>
<radialGradient id="paint2_radial_1_5834" cx="0" cy="0" r="1" gradientUnits="userSpaceOnUse" gradientTransform="translate(8.02511 3.91246) rotate(-11.4923) scale(13.2751 6.90504)">
<stop stop-color="#BDD9F9"/>
<stop offset="0.065" stop-color="#BDD9F9"/>
<stop offset="1" stop-color="#1C3556" stop-opacity="0.101"/>
</radialGradient>
<linearGradient id="paint3_linear_1_5834" x1="1.6228" y1="3.60679" x2="6.82407" y2="14.8379" gradientUnits="userSpaceOnUse">
<stop stop-opacity="0"/>
<stop offset="1" stop-opacity="0.621"/>
</linearGradient>
<radialGradient id="paint4_radial_1_5834" cx="0" cy="0" r="1" gradientUnits="userSpaceOnUse" gradientTransform="translate(5.81279 6.62857) rotate(-11.4923) scale(13.2733 6.90412)">
<stop stop-color="#BDD9F9"/>
<stop offset="0.065" stop-color="#BDD9F9"/>
<stop offset="1" stop-color="#1C3556" stop-opacity="0.101"/>
</radialGradient>
<linearGradient id="paint5_linear_1_5834" x1="18.0234" y1="2.59858" x2="20.9307" y2="5.17837" gradientUnits="userSpaceOnUse">
<stop stop-color="#FDEC97"/>
<stop offset="0.353" stop-color="#FDEC97"/>
<stop offset="0.513" stop-color="#FDEC97"/>
<stop offset="0.628" stop-color="#DB990F"/>
<stop offset="1" stop-color="#DB990F"/>
</linearGradient>
<linearGradient id="paint6_linear_1_5834" x1="18.2423" y1="20.321" x2="21.3107" y2="17.1951" gradientUnits="userSpaceOnUse">
<stop stop-color="#FFDC76"/>
<stop offset="0.327" stop-color="#E4903B"/>
<stop offset="0.451" stop-color="#CA4400"/>
<stop offset="0.58" stop-color="#FDEC97"/>
<stop offset="0.704" stop-color="#DB990F"/>
<stop offset="1" stop-color="#DB990F"/>
</linearGradient>
<linearGradient id="paint7_linear_1_5834" x1="4.10777" y1="19.7592" x2="2.06061" y2="17.5073" gradientUnits="userSpaceOnUse">
<stop stop-color="#FFDC76"/>
<stop offset="0.327" stop-color="#E4903B"/>
<stop offset="0.451" stop-color="#CA4400"/>
<stop offset="0.58" stop-color="#FDEC97"/>
<stop offset="0.704" stop-color="#DB990F"/>
<stop offset="1" stop-color="#DB990F"/>
</linearGradient>
<linearGradient id="paint8_linear_1_5834" x1="2.09897" y1="5.35867" x2="4.88254" y2="2.61631" gradientUnits="userSpaceOnUse">
<stop stop-color="#CA4400"/>
<stop offset="0.353" stop-color="#CA4400"/>
<stop offset="0.513" stop-color="#FDEC97"/>
<stop offset="0.628" stop-color="#DB990F"/>
<stop offset="1" stop-color="#DB990F"/>
</linearGradient>
<linearGradient id="paint9_linear_1_5834" x1="5.97659" y1="5.53815" x2="8.492" y2="16.7665" gradientUnits="userSpaceOnUse">
<stop stop-color="#DA940F"/>
<stop offset="0.235" stop-color="#EFD11A"/>
<stop offset="0.75" stop-color="#EFD11A"/>
<stop offset="0.908" stop-color="#EFD11A"/>
<stop offset="1" stop-color="#D3900E"/>
</linearGradient>
<linearGradient id="paint10_linear_1_5834" x1="7.55457" y1="5.50489" x2="9.7819" y2="16.0908" gradientUnits="userSpaceOnUse">
<stop stop-color="#C63000"/>
<stop offset="0.491" stop-color="#DB9000"/>
<stop offset="0.8" stop-color="#DB9000"/>
<stop offset="1" stop-color="#C43B00"/>
</linearGradient>
<linearGradient id="paint11_linear_1_5834" x1="11.9481" y1="10.5133" x2="10.3127" y2="17.3161" gradientUnits="userSpaceOnUse">
<stop stop-color="#AD2F00"/>
<stop offset="1" stop-color="#CB7500"/>
</linearGradient>
<linearGradient id="paint12_linear_1_5834" x1="11.9245" y1="7.28044" x2="9.59108" y2="14.4446" gradientUnits="userSpaceOnUse">
<stop stop-color="#ECD500"/>
<stop offset="0.869" stop-color="#ECD500"/>
<stop offset="1" stop-color="#FFEF57"/>
</linearGradient>
<linearGradient id="paint13_linear_1_5834" x1="6.86056" y1="5.41078" x2="7.43348" y2="6.64324" gradientUnits="userSpaceOnUse">
<stop stop-color="#FFD511"/>
<stop offset="1" stop-color="#FDF8DC"/>
</linearGradient>
<linearGradient id="paint14_linear_1_5834" x1="11.0634" y1="7.06754" x2="13.7637" y2="16.3835" gradientUnits="userSpaceOnUse">
<stop stop-color="#BD3300"/>
<stop offset="0.188" stop-color="#BD3300"/>
<stop offset="0.411" stop-color="#CB8500"/>
<stop offset="1" stop-color="#C26F00"/>
</linearGradient>
<linearGradient id="paint15_linear_1_5834" x1="10.9524" y1="10.6795" x2="12.7472" y2="16.8743" gradientUnits="userSpaceOnUse">
<stop stop-color="#FFD303"/>
<stop offset="0.902" stop-color="#FFD303"/>
<stop offset="1" stop-color="#D27E00"/>
</linearGradient>
<linearGradient id="paint16_linear_1_5834" x1="16.8338" y1="5.25047" x2="14.814" y2="17.4436" gradientUnits="userSpaceOnUse">
<stop stop-color="#A51F00"/>
<stop offset="0.288" stop-color="#C67200"/>
<stop offset="0.644" stop-color="#C67200"/>
<stop offset="1" stop-color="#C25500"/>
</linearGradient>
<linearGradient id="paint17_linear_1_5834" x1="15.27" y1="5.51323" x2="13.2437" y2="16.2909" gradientUnits="userSpaceOnUse">
<stop stop-color="#CD7C00"/>
<stop offset="0.314" stop-color="#EED700"/>
<stop offset="1" stop-color="#EED700"/>
</linearGradient>
<linearGradient id="paint18_linear_1_5834" x1="15.9561" y1="5.41317" x2="16.4882" y2="6.46871" gradientUnits="userSpaceOnUse">
<stop stop-color="#FFD511"/>
<stop offset="1" stop-color="#FDF8DC"/>
</linearGradient>
<linearGradient id="paint19_linear_1_5834" x1="-0.0927822" y1="16.2213" x2="23.8756" y2="6.2435" gradientUnits="userSpaceOnUse">
<stop stop-color="#51290E"/>
<stop offset="0.346" stop-color="#D08E29"/>
<stop offset="0.417" stop-color="#E1D02D"/>
<stop offset="0.498" stop-color="#F6E57F"/>
<stop offset="0.537" stop-color="#F6E57F"/>
<stop offset="0.605" stop-color="#E1D02D"/>
<stop offset="0.687" stop-color="#D08E29"/>
<stop offset="1" stop-color="#452A15"/>
</linearGradient>
<linearGradient id="paint20_linear_1_5834" x1="17.2772" y1="19.4512" x2="4.88773" y2="1.89192" gradientUnits="userSpaceOnUse">
<stop stop-color="#FFE12B"/>
<stop offset="0.136" stop-color="#FFF7C7" stop-opacity="0"/>
<stop offset="0.819" stop-color="#FFF7C7" stop-opacity="0"/>
<stop offset="1" stop-color="#FFE12B"/>
</linearGradient>
<clipPath id="clip0_1_5834">
<rect width="21.9736" height="22" fill="white" transform="translate(0.535156 0.386719)"/>
</clipPath>
</defs>
</svg>
